<?xml version="1.0" encoding="utf-8"?>
<svg xmlns="http://www.w3.org/2000/svg" xmlns:xlink="http://www.w3.org/1999/xlink" width="600" height="400" viewBox="0 0 2400 1600">
<defs>
  <clipPath id="clip340">
    <rect x="0" y="0" width="2400" height="1600"/>
  </clipPath>
</defs>
<path clip-path="url(#clip340)" d="
M0 1600 L2400 1600 L2400 0 L0 0  Z
  " fill="#ffffff" fill-rule="evenodd" fill-opacity="1"/>
<defs>
  <clipPath id="clip341">
    <rect x="480" y="0" width="1681" height="1600"/>
  </clipPath>
</defs>
<path clip-path="url(#clip340)" d="
M265.144 1423.18 L2352.76 1423.18 L2352.76 47.2441 L265.144 47.2441  Z
  " fill="#ffffff" fill-rule="evenodd" fill-opacity="1"/>
<defs>
  <clipPath id="clip342">
    <rect x="265" y="47" width="2089" height="1377"/>
  </clipPath>
</defs>
<polyline clip-path="url(#clip342)" style="stroke:#000000; stroke-width:2; stroke-opacity:0.1; fill:none" points="
  279.536,1423.18 279.536,47.2441 
  "/>
<polyline clip-path="url(#clip342)" style="stroke:#000000; stroke-width:2; stroke-opacity:0.1; fill:none" points="
  781.689,1423.18 781.689,47.2441 
  "/>
<polyline clip-path="url(#clip342)" style="stroke:#000000; stroke-width:2; stroke-opacity:0.1; fill:none" points="
  1283.84,1423.18 1283.84,47.2441 
  "/>
<polyline clip-path="url(#clip342)" style="stroke:#000000; stroke-width:2; stroke-opacity:0.1; fill:none" points="
  1786,1423.18 1786,47.2441 
  "/>
<polyline clip-path="url(#clip342)" style="stroke:#000000; stroke-width:2; stroke-opacity:0.1; fill:none" points="
  2288.15,1423.18 2288.15,47.2441 
  "/>
<polyline clip-path="url(#clip340)" style="stroke:#000000; stroke-width:4; stroke-opacity:1; fill:none" points="
  265.144,1423.18 2352.76,1423.18 
  "/>
<polyline clip-path="url(#clip340)" style="stroke:#000000; stroke-width:4; stroke-opacity:1; fill:none" points="
  279.536,1423.18 279.536,1406.67 
  "/>
<polyline clip-path="url(#clip340)" style="stroke:#000000; stroke-width:4; stroke-opacity:1; fill:none" points="
  781.689,1423.18 781.689,1406.67 
  "/>
<polyline clip-path="url(#clip340)" style="stroke:#000000; stroke-width:4; stroke-opacity:1; fill:none" points="
  1283.84,1423.18 1283.84,1406.67 
  "/>
<polyline clip-path="url(#clip340)" style="stroke:#000000; stroke-width:4; stroke-opacity:1; fill:none" points="
  1786,1423.18 1786,1406.67 
  "/>
<polyline clip-path="url(#clip340)" style="stroke:#000000; stroke-width:4; stroke-opacity:1; fill:none" points="
  2288.15,1423.18 2288.15,1406.67 
  "/>
<path clip-path="url(#clip340)" d="M 0 0 M279.536 1452.37 Q275.924 1452.37 274.096 1455.94 Q272.29 1459.48 272.29 1466.61 Q272.29 1473.71 274.096 1477.28 Q275.924 1480.82 279.536 1480.82 Q283.17 1480.82 284.975 1477.28 Q286.804 1473.71 286.804 1466.61 Q286.804 1459.48 284.975 1455.94 Q283.17 1452.37 279.536 1452.37 M279.536 1448.67 Q285.346 1448.67 288.401 1453.27 Q291.48 1457.86 291.48 1466.61 Q291.48 1475.33 288.401 1479.94 Q285.346 1484.52 279.536 1484.52 Q273.725 1484.52 270.647 1479.94 Q267.591 1475.33 267.591 1466.61 Q267.591 1457.86 270.647 1453.27 Q273.725 1448.67 279.536 1448.67 Z" fill="#000000" fill-rule="evenodd" fill-opacity="1" /><path clip-path="url(#clip340)" d="M 0 0 M758.564 1479.92 L766.203 1479.92 L766.203 1453.55 L757.893 1455.22 L757.893 1450.96 L766.157 1449.29 L770.832 1449.29 L770.832 1479.92 L778.471 1479.92 L778.471 1483.85 L758.564 1483.85 L758.564 1479.92 Z" fill="#000000" fill-rule="evenodd" fill-opacity="1" /><path clip-path="url(#clip340)" d="M 0 0 M793.541 1452.37 Q789.93 1452.37 788.101 1455.94 Q786.295 1459.48 786.295 1466.61 Q786.295 1473.71 788.101 1477.28 Q789.93 1480.82 793.541 1480.82 Q797.175 1480.82 798.98 1477.28 Q800.809 1473.71 800.809 1466.61 Q800.809 1459.48 798.98 1455.94 Q797.175 1452.37 793.541 1452.37 M793.541 1448.67 Q799.351 1448.67 802.406 1453.27 Q805.485 1457.86 805.485 1466.61 Q805.485 1475.33 802.406 1479.94 Q799.351 1484.52 793.541 1484.52 Q787.73 1484.52 784.652 1479.94 Q781.596 1475.33 781.596 1466.61 Q781.596 1457.86 784.652 1453.27 Q787.73 1448.67 793.541 1448.67 Z" fill="#000000" fill-rule="evenodd" fill-opacity="1" /><path clip-path="url(#clip340)" d="M 0 0 M1264.99 1479.92 L1281.31 1479.92 L1281.31 1483.85 L1259.36 1483.85 L1259.36 1479.92 Q1262.03 1477.16 1266.61 1472.53 Q1271.21 1467.88 1272.4 1466.54 Q1274.64 1464.01 1275.52 1462.28 Q1276.42 1460.52 1276.42 1458.83 Q1276.42 1456.07 1274.48 1454.34 Q1272.56 1452.6 1269.46 1452.6 Q1267.26 1452.6 1264.8 1453.37 Q1262.37 1454.13 1259.59 1455.68 L1259.59 1450.96 Q1262.42 1449.82 1264.87 1449.25 Q1267.33 1448.67 1269.36 1448.67 Q1274.73 1448.67 1277.93 1451.35 Q1281.12 1454.04 1281.12 1458.53 Q1281.12 1460.66 1280.31 1462.58 Q1279.53 1464.48 1277.42 1467.07 Q1276.84 1467.74 1273.74 1470.96 Q1270.64 1474.15 1264.99 1479.92 Z" fill="#000000" fill-rule="evenodd" fill-opacity="1" /><path clip-path="url(#clip340)" d="M 0 0 M1296.38 1452.37 Q1292.77 1452.37 1290.94 1455.94 Q1289.13 1459.48 1289.13 1466.61 Q1289.13 1473.71 1290.94 1477.28 Q1292.77 1480.82 1296.38 1480.82 Q1300.01 1480.82 1301.82 1477.28 Q1303.65 1473.71 1303.65 1466.61 Q1303.65 1459.48 1301.82 1455.94 Q1300.01 1452.37 1296.38 1452.37 M1296.38 1448.67 Q1302.19 1448.67 1305.24 1453.27 Q1308.32 1457.86 1308.32 1466.61 Q1308.32 1475.33 1305.24 1479.94 Q1302.19 1484.52 1296.38 1484.52 Q1290.57 1484.52 1287.49 1479.94 Q1284.43 1475.33 1284.43 1466.61 Q1284.43 1457.86 1287.49 1453.27 Q1290.57 1448.67 1296.38 1448.67 Z" fill="#000000" fill-rule="evenodd" fill-opacity="1" /><path clip-path="url(#clip340)" d="M 0 0 M1776.74 1465.22 Q1780.09 1465.94 1781.97 1468.2 Q1783.87 1470.47 1783.87 1473.81 Q1783.87 1478.92 1780.35 1481.72 Q1776.83 1484.52 1770.35 1484.52 Q1768.17 1484.52 1765.86 1484.08 Q1763.57 1483.67 1761.11 1482.81 L1761.11 1478.3 Q1763.06 1479.43 1765.37 1480.01 Q1767.69 1480.59 1770.21 1480.59 Q1774.61 1480.59 1776.9 1478.85 Q1779.21 1477.12 1779.21 1473.81 Q1779.21 1470.75 1777.06 1469.04 Q1774.93 1467.3 1771.11 1467.3 L1767.08 1467.3 L1767.08 1463.46 L1771.3 1463.46 Q1774.75 1463.46 1776.57 1462.09 Q1778.4 1460.7 1778.4 1458.11 Q1778.4 1455.45 1776.5 1454.04 Q1774.63 1452.6 1771.11 1452.6 Q1769.19 1452.6 1766.99 1453.02 Q1764.79 1453.44 1762.15 1454.31 L1762.15 1450.15 Q1764.82 1449.41 1767.13 1449.04 Q1769.47 1448.67 1771.53 1448.67 Q1776.85 1448.67 1779.95 1451.1 Q1783.06 1453.5 1783.06 1457.63 Q1783.06 1460.5 1781.41 1462.49 Q1779.77 1464.45 1776.74 1465.22 Z" fill="#000000" fill-rule="evenodd" fill-opacity="1" /><path clip-path="url(#clip340)" d="M 0 0 M1798.94 1452.37 Q1795.32 1452.37 1793.5 1455.94 Q1791.69 1459.48 1791.69 1466.61 Q1791.69 1473.71 1793.5 1477.28 Q1795.32 1480.82 1798.94 1480.82 Q1802.57 1480.82 1804.38 1477.28 Q1806.2 1473.71 1806.2 1466.61 Q1806.2 1459.48 1804.38 1455.94 Q1802.57 1452.37 1798.94 1452.37 M1798.94 1448.67 Q1804.75 1448.67 1807.8 1453.27 Q1810.88 1457.86 1810.88 1466.61 Q1810.88 1475.33 1807.8 1479.94 Q1804.75 1484.52 1798.94 1484.52 Q1793.13 1484.52 1790.05 1479.94 Q1786.99 1475.33 1786.99 1466.61 Q1786.99 1457.86 1790.05 1453.27 Q1793.13 1448.67 1798.94 1448.67 Z" fill="#000000" fill-rule="evenodd" fill-opacity="1" /><path clip-path="url(#clip340)" d="M 0 0 M2277.65 1453.37 L2265.85 1471.81 L2277.65 1471.81 L2277.65 1453.37 M2276.42 1449.29 L2282.3 1449.29 L2282.3 1471.81 L2287.23 1471.81 L2287.23 1475.7 L2282.3 1475.7 L2282.3 1483.85 L2277.65 1483.85 L2277.65 1475.7 L2262.05 1475.7 L2262.05 1471.19 L2276.42 1449.29 Z" fill="#000000" fill-rule="evenodd" fill-opacity="1" /><path clip-path="url(#clip340)" d="M 0 0 M2302.3 1452.37 Q2298.69 1452.37 2296.86 1455.94 Q2295.06 1459.48 2295.06 1466.61 Q2295.06 1473.71 2296.86 1477.28 Q2298.69 1480.82 2302.3 1480.82 Q2305.94 1480.82 2307.74 1477.28 Q2309.57 1473.71 2309.57 1466.61 Q2309.57 1459.48 2307.74 1455.94 Q2305.94 1452.37 2302.3 1452.37 M2302.3 1448.67 Q2308.11 1448.67 2311.17 1453.27 Q2314.25 1457.86 2314.25 1466.61 Q2314.25 1475.33 2311.17 1479.94 Q2308.11 1484.52 2302.3 1484.52 Q2296.49 1484.52 2293.42 1479.94 Q2290.36 1475.33 2290.36 1466.61 Q2290.36 1457.86 2293.42 1453.27 Q2296.49 1448.67 2302.3 1448.67 Z" fill="#000000" fill-rule="evenodd" fill-opacity="1" /><path clip-path="url(#clip340)" d="M 0 0 M1325.56 1532.4 L1312.67 1549.74 L1326.23 1568.04 L1319.33 1568.04 L1308.95 1554.04 L1298.57 1568.04 L1291.67 1568.04 L1305.51 1549.39 L1292.84 1532.4 L1299.75 1532.4 L1309.2 1545.1 L1318.66 1532.4 L1325.56 1532.4 Z" fill="#000000" fill-rule="evenodd" fill-opacity="1" /><polyline clip-path="url(#clip342)" style="stroke:#000000; stroke-width:2; stroke-opacity:0.1; fill:none" points="
  265.144,1384.24 2352.76,1384.24 
  "/>
<polyline clip-path="url(#clip342)" style="stroke:#000000; stroke-width:2; stroke-opacity:0.1; fill:none" points="
  265.144,1052.72 2352.76,1052.72 
  "/>
<polyline clip-path="url(#clip342)" style="stroke:#000000; stroke-width:2; stroke-opacity:0.1; fill:none" points="
  265.144,721.193 2352.76,721.193 
  "/>
<polyline clip-path="url(#clip342)" style="stroke:#000000; stroke-width:2; stroke-opacity:0.1; fill:none" points="
  265.144,389.67 2352.76,389.67 
  "/>
<polyline clip-path="url(#clip342)" style="stroke:#000000; stroke-width:2; stroke-opacity:0.1; fill:none" points="
  265.144,58.1475 2352.76,58.1475 
  "/>
<polyline clip-path="url(#clip340)" style="stroke:#000000; stroke-width:4; stroke-opacity:1; fill:none" points="
  265.144,1423.18 265.144,47.2441 
  "/>
<polyline clip-path="url(#clip340)" style="stroke:#000000; stroke-width:4; stroke-opacity:1; fill:none" points="
  265.144,1384.24 290.195,1384.24 
  "/>
<polyline clip-path="url(#clip340)" style="stroke:#000000; stroke-width:4; stroke-opacity:1; fill:none" points="
  265.144,1052.72 290.195,1052.72 
  "/>
<polyline clip-path="url(#clip340)" style="stroke:#000000; stroke-width:4; stroke-opacity:1; fill:none" points="
  265.144,721.193 290.195,721.193 
  "/>
<polyline clip-path="url(#clip340)" style="stroke:#000000; stroke-width:4; stroke-opacity:1; fill:none" points="
  265.144,389.67 290.195,389.67 
  "/>
<polyline clip-path="url(#clip340)" style="stroke:#000000; stroke-width:4; stroke-opacity:1; fill:none" points="
  265.144,58.1475 290.195,58.1475 
  "/>
<path clip-path="url(#clip340)" d="M 0 0 M126.205 1370.04 Q122.593 1370.04 120.765 1373.6 Q118.959 1377.14 118.959 1384.27 Q118.959 1391.38 120.765 1394.94 Q122.593 1398.49 126.205 1398.49 Q129.839 1398.49 131.644 1394.94 Q133.473 1391.38 133.473 1384.27 Q133.473 1377.14 131.644 1373.6 Q129.839 1370.04 126.205 1370.04 M126.205 1366.33 Q132.015 1366.33 135.07 1370.94 Q138.149 1375.52 138.149 1384.27 Q138.149 1393 135.07 1397.61 Q132.015 1402.19 126.205 1402.19 Q120.394 1402.19 117.316 1397.61 Q114.26 1393 114.26 1384.27 Q114.26 1375.52 117.316 1370.94 Q120.394 1366.33 126.205 1366.33 Z" fill="#000000" fill-rule="evenodd" fill-opacity="1" /><path clip-path="url(#clip340)" d="M 0 0 M143.218 1395.64 L148.103 1395.64 L148.103 1401.52 L143.218 1401.52 L143.218 1395.64 Z" fill="#000000" fill-rule="evenodd" fill-opacity="1" /><path clip-path="url(#clip340)" d="M 0 0 M163.172 1370.04 Q159.561 1370.04 157.732 1373.6 Q155.927 1377.14 155.927 1384.27 Q155.927 1391.38 157.732 1394.94 Q159.561 1398.49 163.172 1398.49 Q166.806 1398.49 168.612 1394.94 Q170.44 1391.38 170.44 1384.27 Q170.44 1377.14 168.612 1373.6 Q166.806 1370.04 163.172 1370.04 M163.172 1366.33 Q168.982 1366.33 172.038 1370.94 Q175.116 1375.52 175.116 1384.27 Q175.116 1393 172.038 1397.61 Q168.982 1402.19 163.172 1402.19 Q157.362 1402.19 154.283 1397.61 Q151.228 1393 151.228 1384.27 Q151.228 1375.52 154.283 1370.94 Q157.362 1366.33 163.172 1366.33 Z" fill="#000000" fill-rule="evenodd" fill-opacity="1" /><path clip-path="url(#clip340)" d="M 0 0 M190.186 1370.04 Q186.575 1370.04 184.746 1373.6 Q182.94 1377.14 182.94 1384.27 Q182.94 1391.38 184.746 1394.94 Q186.575 1398.49 190.186 1398.49 Q193.82 1398.49 195.625 1394.94 Q197.454 1391.38 197.454 1384.27 Q197.454 1377.14 195.625 1373.6 Q193.82 1370.04 190.186 1370.04 M190.186 1366.33 Q195.996 1366.33 199.051 1370.94 Q202.13 1375.52 202.13 1384.27 Q202.13 1393 199.051 1397.61 Q195.996 1402.19 190.186 1402.19 Q184.376 1402.19 181.297 1397.61 Q178.241 1393 178.241 1384.27 Q178.241 1375.52 181.297 1370.94 Q184.376 1366.33 190.186 1366.33 Z" fill="#000000" fill-rule="evenodd" fill-opacity="1" /><path clip-path="url(#clip340)" d="M 0 0 M217.199 1370.04 Q213.588 1370.04 211.76 1373.6 Q209.954 1377.14 209.954 1384.27 Q209.954 1391.38 211.76 1394.94 Q213.588 1398.49 217.199 1398.49 Q220.834 1398.49 222.639 1394.94 Q224.468 1391.38 224.468 1384.27 Q224.468 1377.14 222.639 1373.6 Q220.834 1370.04 217.199 1370.04 M217.199 1366.33 Q223.01 1366.33 226.065 1370.94 Q229.144 1375.52 229.144 1384.27 Q229.144 1393 226.065 1397.61 Q223.01 1402.19 217.199 1402.19 Q211.389 1402.19 208.311 1397.61 Q205.255 1393 205.255 1384.27 Q205.255 1375.52 208.311 1370.94 Q211.389 1366.33 217.199 1366.33 Z" fill="#000000" fill-rule="evenodd" fill-opacity="1" /><path clip-path="url(#clip340)" d="M 0 0 M128.797 1038.51 Q125.186 1038.51 123.357 1042.08 Q121.552 1045.62 121.552 1052.75 Q121.552 1059.86 123.357 1063.42 Q125.186 1066.96 128.797 1066.96 Q132.431 1066.96 134.237 1063.42 Q136.066 1059.86 136.066 1052.75 Q136.066 1045.62 134.237 1042.08 Q132.431 1038.51 128.797 1038.51 M128.797 1034.81 Q134.607 1034.81 137.663 1039.42 Q140.741 1044 140.741 1052.75 Q140.741 1061.48 137.663 1066.08 Q134.607 1070.67 128.797 1070.67 Q122.987 1070.67 119.908 1066.08 Q116.853 1061.48 116.853 1052.75 Q116.853 1044 119.908 1039.42 Q122.987 1034.81 128.797 1034.81 Z" fill="#000000" fill-rule="evenodd" fill-opacity="1" /><path clip-path="url(#clip340)" d="M 0 0 M145.811 1064.12 L150.695 1064.12 L150.695 1070 L145.811 1070 L145.811 1064.12 Z" fill="#000000" fill-rule="evenodd" fill-opacity="1" /><path clip-path="url(#clip340)" d="M 0 0 M165.765 1038.51 Q162.153 1038.51 160.325 1042.08 Q158.519 1045.62 158.519 1052.75 Q158.519 1059.86 160.325 1063.42 Q162.153 1066.96 165.765 1066.96 Q169.399 1066.96 171.204 1063.42 Q173.033 1059.86 173.033 1052.75 Q173.033 1045.62 171.204 1042.08 Q169.399 1038.51 165.765 1038.51 M165.765 1034.81 Q171.575 1034.81 174.63 1039.42 Q177.709 1044 177.709 1052.75 Q177.709 1061.48 174.63 1066.08 Q171.575 1070.67 165.765 1070.67 Q159.954 1070.67 156.876 1066.08 Q153.82 1061.48 153.82 1052.75 Q153.82 1044 156.876 1039.42 Q159.954 1034.81 165.765 1034.81 Z" fill="#000000" fill-rule="evenodd" fill-opacity="1" /><path clip-path="url(#clip340)" d="M 0 0 M186.806 1066.06 L203.125 1066.06 L203.125 1070 L181.181 1070 L181.181 1066.06 Q183.843 1063.31 188.426 1058.68 Q193.033 1054.02 194.213 1052.68 Q196.459 1050.16 197.338 1048.42 Q198.241 1046.66 198.241 1044.97 Q198.241 1042.22 196.297 1040.48 Q194.375 1038.75 191.274 1038.75 Q189.075 1038.75 186.621 1039.51 Q184.19 1040.27 181.413 1041.82 L181.413 1037.1 Q184.237 1035.97 186.69 1035.39 Q189.144 1034.81 191.181 1034.81 Q196.551 1034.81 199.746 1037.5 Q202.94 1040.18 202.94 1044.67 Q202.94 1046.8 202.13 1048.72 Q201.343 1050.62 199.237 1053.21 Q198.658 1053.88 195.556 1057.1 Q192.454 1060.3 186.806 1066.06 Z" fill="#000000" fill-rule="evenodd" fill-opacity="1" /><path clip-path="url(#clip340)" d="M 0 0 M208.241 1035.44 L226.598 1035.44 L226.598 1039.37 L212.524 1039.37 L212.524 1047.84 Q213.542 1047.5 214.561 1047.33 Q215.579 1047.15 216.598 1047.15 Q222.385 1047.15 225.764 1050.32 Q229.144 1053.49 229.144 1058.91 Q229.144 1064.49 225.672 1067.59 Q222.199 1070.67 215.88 1070.67 Q213.704 1070.67 211.436 1070.3 Q209.19 1069.93 206.783 1069.19 L206.783 1064.49 Q208.866 1065.62 211.088 1066.18 Q213.311 1066.73 215.787 1066.73 Q219.792 1066.73 222.13 1064.63 Q224.468 1062.52 224.468 1058.91 Q224.468 1055.3 222.13 1053.19 Q219.792 1051.08 215.787 1051.08 Q213.912 1051.08 212.037 1051.5 Q210.186 1051.92 208.241 1052.8 L208.241 1035.44 Z" fill="#000000" fill-rule="evenodd" fill-opacity="1" /><path clip-path="url(#clip340)" d="M 0 0 M127.2 706.992 Q123.589 706.992 121.76 710.556 Q119.955 714.098 119.955 721.228 Q119.955 728.334 121.76 731.899 Q123.589 735.44 127.2 735.44 Q130.834 735.44 132.64 731.899 Q134.468 728.334 134.468 721.228 Q134.468 714.098 132.64 710.556 Q130.834 706.992 127.2 706.992 M127.2 703.288 Q133.01 703.288 136.066 707.894 Q139.144 712.478 139.144 721.228 Q139.144 729.954 136.066 734.561 Q133.01 739.144 127.2 739.144 Q121.39 739.144 118.311 734.561 Q115.256 729.954 115.256 721.228 Q115.256 712.478 118.311 707.894 Q121.39 703.288 127.2 703.288 Z" fill="#000000" fill-rule="evenodd" fill-opacity="1" /><path clip-path="url(#clip340)" d="M 0 0 M144.214 732.593 L149.098 732.593 L149.098 738.473 L144.214 738.473 L144.214 732.593 Z" fill="#000000" fill-rule="evenodd" fill-opacity="1" /><path clip-path="url(#clip340)" d="M 0 0 M164.167 706.992 Q160.556 706.992 158.728 710.556 Q156.922 714.098 156.922 721.228 Q156.922 728.334 158.728 731.899 Q160.556 735.44 164.167 735.44 Q167.802 735.44 169.607 731.899 Q171.436 728.334 171.436 721.228 Q171.436 714.098 169.607 710.556 Q167.802 706.992 164.167 706.992 M164.167 703.288 Q169.977 703.288 173.033 707.894 Q176.112 712.478 176.112 721.228 Q176.112 729.954 173.033 734.561 Q169.977 739.144 164.167 739.144 Q158.357 739.144 155.278 734.561 Q152.223 729.954 152.223 721.228 Q152.223 712.478 155.278 707.894 Q158.357 703.288 164.167 703.288 Z" fill="#000000" fill-rule="evenodd" fill-opacity="1" /><path clip-path="url(#clip340)" d="M 0 0 M181.227 703.913 L199.584 703.913 L199.584 707.848 L185.51 707.848 L185.51 716.32 Q186.528 715.973 187.547 715.811 Q188.565 715.626 189.584 715.626 Q195.371 715.626 198.75 718.797 Q202.13 721.968 202.13 727.385 Q202.13 732.964 198.658 736.065 Q195.186 739.144 188.866 739.144 Q186.69 739.144 184.422 738.774 Q182.176 738.403 179.769 737.663 L179.769 732.964 Q181.852 734.098 184.075 734.653 Q186.297 735.209 188.774 735.209 Q192.778 735.209 195.116 733.103 Q197.454 730.996 197.454 727.385 Q197.454 723.774 195.116 721.667 Q192.778 719.561 188.774 719.561 Q186.899 719.561 185.024 719.978 Q183.172 720.394 181.227 721.274 L181.227 703.913 Z" fill="#000000" fill-rule="evenodd" fill-opacity="1" /><path clip-path="url(#clip340)" d="M 0 0 M217.199 706.992 Q213.588 706.992 211.76 710.556 Q209.954 714.098 209.954 721.228 Q209.954 728.334 211.76 731.899 Q213.588 735.44 217.199 735.44 Q220.834 735.44 222.639 731.899 Q224.468 728.334 224.468 721.228 Q224.468 714.098 222.639 710.556 Q220.834 706.992 217.199 706.992 M217.199 703.288 Q223.01 703.288 226.065 707.894 Q229.144 712.478 229.144 721.228 Q229.144 729.954 226.065 734.561 Q223.01 739.144 217.199 739.144 Q211.389 739.144 208.311 734.561 Q205.255 729.954 205.255 721.228 Q205.255 712.478 208.311 707.894 Q211.389 703.288 217.199 703.288 Z" fill="#000000" fill-rule="evenodd" fill-opacity="1" /><path clip-path="url(#clip340)" d="M 0 0 M128.103 375.469 Q124.492 375.469 122.663 379.034 Q120.857 382.575 120.857 389.705 Q120.857 396.811 122.663 400.376 Q124.492 403.918 128.103 403.918 Q131.737 403.918 133.542 400.376 Q135.371 396.811 135.371 389.705 Q135.371 382.575 133.542 379.034 Q131.737 375.469 128.103 375.469 M128.103 371.765 Q133.913 371.765 136.968 376.372 Q140.047 380.955 140.047 389.705 Q140.047 398.432 136.968 403.038 Q133.913 407.621 128.103 407.621 Q122.293 407.621 119.214 403.038 Q116.158 398.432 116.158 389.705 Q116.158 380.955 119.214 376.372 Q122.293 371.765 128.103 371.765 Z" fill="#000000" fill-rule="evenodd" fill-opacity="1" /><path clip-path="url(#clip340)" d="M 0 0 M145.116 401.071 L150.001 401.071 L150.001 406.95 L145.116 406.95 L145.116 401.071 Z" fill="#000000" fill-rule="evenodd" fill-opacity="1" /><path clip-path="url(#clip340)" d="M 0 0 M165.07 375.469 Q161.459 375.469 159.63 379.034 Q157.825 382.575 157.825 389.705 Q157.825 396.811 159.63 400.376 Q161.459 403.918 165.07 403.918 Q168.704 403.918 170.51 400.376 Q172.339 396.811 172.339 389.705 Q172.339 382.575 170.51 379.034 Q168.704 375.469 165.07 375.469 M165.07 371.765 Q170.88 371.765 173.936 376.372 Q177.014 380.955 177.014 389.705 Q177.014 398.432 173.936 403.038 Q170.88 407.621 165.07 407.621 Q159.26 407.621 156.181 403.038 Q153.126 398.432 153.126 389.705 Q153.126 380.955 156.181 376.372 Q159.26 371.765 165.07 371.765 Z" fill="#000000" fill-rule="evenodd" fill-opacity="1" /><path clip-path="url(#clip340)" d="M 0 0 M180.903 372.39 L203.125 372.39 L203.125 374.381 L190.579 406.95 L185.695 406.95 L197.5 376.325 L180.903 376.325 L180.903 372.39 Z" fill="#000000" fill-rule="evenodd" fill-opacity="1" /><path clip-path="url(#clip340)" d="M 0 0 M208.241 372.39 L226.598 372.39 L226.598 376.325 L212.524 376.325 L212.524 384.798 Q213.542 384.45 214.561 384.288 Q215.579 384.103 216.598 384.103 Q222.385 384.103 225.764 387.274 Q229.144 390.446 229.144 395.862 Q229.144 401.441 225.672 404.543 Q222.199 407.621 215.88 407.621 Q213.704 407.621 211.436 407.251 Q209.19 406.881 206.783 406.14 L206.783 401.441 Q208.866 402.575 211.088 403.131 Q213.311 403.686 215.787 403.686 Q219.792 403.686 222.13 401.58 Q224.468 399.473 224.468 395.862 Q224.468 392.251 222.13 390.145 Q219.792 388.038 215.787 388.038 Q213.912 388.038 212.037 388.455 Q210.186 388.872 208.241 389.751 L208.241 372.39 Z" fill="#000000" fill-rule="evenodd" fill-opacity="1" /><path clip-path="url(#clip340)" d="M 0 0 M127.431 43.9462 Q123.82 43.9462 121.992 47.511 Q120.186 51.0526 120.186 58.1822 Q120.186 65.2887 121.992 68.8535 Q123.82 72.3951 127.431 72.3951 Q131.066 72.3951 132.871 68.8535 Q134.7 65.2887 134.7 58.1822 Q134.7 51.0526 132.871 47.511 Q131.066 43.9462 127.431 43.9462 M127.431 40.2425 Q133.242 40.2425 136.297 44.8489 Q139.376 49.4323 139.376 58.1822 Q139.376 66.909 136.297 71.5155 Q133.242 76.0988 127.431 76.0988 Q121.621 76.0988 118.543 71.5155 Q115.487 66.909 115.487 58.1822 Q115.487 49.4323 118.543 44.8489 Q121.621 40.2425 127.431 40.2425 Z" fill="#000000" fill-rule="evenodd" fill-opacity="1" /><path clip-path="url(#clip340)" d="M 0 0 M144.445 69.5479 L149.329 69.5479 L149.329 75.4275 L144.445 75.4275 L144.445 69.5479 Z" fill="#000000" fill-rule="evenodd" fill-opacity="1" /><path clip-path="url(#clip340)" d="M 0 0 M155.209 71.4923 L162.848 71.4923 L162.848 45.1267 L154.538 46.7934 L154.538 42.5341 L162.802 40.8675 L167.477 40.8675 L167.477 71.4923 L175.116 71.4923 L175.116 75.4275 L155.209 75.4275 L155.209 71.4923 Z" fill="#000000" fill-rule="evenodd" fill-opacity="1" /><path clip-path="url(#clip340)" d="M 0 0 M190.186 43.9462 Q186.575 43.9462 184.746 47.511 Q182.94 51.0526 182.94 58.1822 Q182.94 65.2887 184.746 68.8535 Q186.575 72.3951 190.186 72.3951 Q193.82 72.3951 195.625 68.8535 Q197.454 65.2887 197.454 58.1822 Q197.454 51.0526 195.625 47.511 Q193.82 43.9462 190.186 43.9462 M190.186 40.2425 Q195.996 40.2425 199.051 44.8489 Q202.13 49.4323 202.13 58.1822 Q202.13 66.909 199.051 71.5155 Q195.996 76.0988 190.186 76.0988 Q184.376 76.0988 181.297 71.5155 Q178.241 66.909 178.241 58.1822 Q178.241 49.4323 181.297 44.8489 Q184.376 40.2425 190.186 40.2425 Z" fill="#000000" fill-rule="evenodd" fill-opacity="1" /><path clip-path="url(#clip340)" d="M 0 0 M217.199 43.9462 Q213.588 43.9462 211.76 47.511 Q209.954 51.0526 209.954 58.1822 Q209.954 65.2887 211.76 68.8535 Q213.588 72.3951 217.199 72.3951 Q220.834 72.3951 222.639 68.8535 Q224.468 65.2887 224.468 58.1822 Q224.468 51.0526 222.639 47.511 Q220.834 43.9462 217.199 43.9462 M217.199 40.2425 Q223.01 40.2425 226.065 44.8489 Q229.144 49.4323 229.144 58.1822 Q229.144 66.909 226.065 71.5155 Q223.01 76.0988 217.199 76.0988 Q211.389 76.0988 208.311 71.5155 Q205.255 66.909 205.255 58.1822 Q205.255 49.4323 208.311 44.8489 Q211.389 40.2425 217.199 40.2425 Z" fill="#000000" fill-rule="evenodd" fill-opacity="1" /><path clip-path="url(#clip340)" d="M 0 0 M21.7677 782.366 L39.6235 782.366 L39.6235 774.281 Q39.6235 769.794 37.3 767.343 Q34.9765 764.892 30.6797 764.892 Q26.4147 764.892 24.0912 767.343 Q21.7677 769.794 21.7677 774.281 L21.7677 782.366 M16.4842 788.795 L16.4842 774.281 Q16.4842 766.293 20.1126 762.218 Q23.7092 758.113 30.6797 758.113 Q37.7138 758.113 41.3104 762.218 Q44.907 766.293 44.907 774.281 L44.907 782.366 L64.0042 782.366 L64.0042 788.795 L16.4842 788.795 Z" fill="#000000" fill-rule="evenodd" fill-opacity="1" /><path clip-path="url(#clip340)" d="M 0 0 M14.5426 737.901 Q21.8632 742.167 29.0246 744.235 Q36.186 746.304 43.5384 746.304 Q50.8908 746.304 58.1159 744.235 Q65.3091 742.135 72.5979 737.901 L72.5979 742.994 Q65.1182 747.768 57.8931 750.155 Q50.668 752.511 43.5384 752.511 Q36.4406 752.511 29.2474 750.155 Q22.0542 747.8 14.5426 742.994 L14.5426 737.901 Z" fill="#000000" fill-rule="evenodd" fill-opacity="1" /><path clip-path="url(#clip340)" d="M 0 0 M28.3562 702.126 L45.7028 715.017 L64.0042 701.458 L64.0042 708.365 L49.9996 718.741 L64.0042 729.117 L64.0042 736.024 L45.3526 722.178 L28.3562 734.846 L28.3562 727.939 L41.0558 718.486 L28.3562 709.033 L28.3562 702.126 Z" fill="#000000" fill-rule="evenodd" fill-opacity="1" /><path clip-path="url(#clip340)" d="M 0 0 M14.5426 696.238 L14.5426 691.145 Q22.0542 686.371 29.2474 684.016 Q36.4406 681.629 43.5384 681.629 Q50.668 681.629 57.8931 684.016 Q65.1182 686.371 72.5979 691.145 L72.5979 696.238 Q65.3091 692.005 58.1159 689.936 Q50.8908 687.835 43.5384 687.835 Q36.186 687.835 29.0246 689.936 Q21.8632 692.005 14.5426 696.238 Z" fill="#000000" fill-rule="evenodd" fill-opacity="1" /><path clip-path="url(#clip342)" d="
M379.966 1384.21 L379.966 1384.24 L430.182 1384.24 L430.182 1384.21 L379.966 1384.21 L379.966 1384.21  Z
  " fill="#009af9" fill-rule="evenodd" fill-opacity="1"/>
<polyline clip-path="url(#clip342)" style="stroke:#000000; stroke-width:4; stroke-opacity:1; fill:none" points="
  379.966,1384.21 379.966,1384.24 430.182,1384.24 430.182,1384.21 379.966,1384.21 
  "/>
<path clip-path="url(#clip342)" d="
M430.182 1383.81 L430.182 1384.24 L480.397 1384.24 L480.397 1383.81 L430.182 1383.81 L430.182 1383.81  Z
  " fill="#009af9" fill-rule="evenodd" fill-opacity="1"/>
<polyline clip-path="url(#clip342)" style="stroke:#000000; stroke-width:4; stroke-opacity:1; fill:none" points="
  430.182,1383.81 430.182,1384.24 480.397,1384.24 480.397,1383.81 430.182,1383.81 
  "/>
<path clip-path="url(#clip342)" d="
M480.397 1381.85 L480.397 1384.24 L530.612 1384.24 L530.612 1381.85 L480.397 1381.85 L480.397 1381.85  Z
  " fill="#009af9" fill-rule="evenodd" fill-opacity="1"/>
<polyline clip-path="url(#clip342)" style="stroke:#000000; stroke-width:4; stroke-opacity:1; fill:none" points="
  480.397,1381.85 480.397,1384.24 530.612,1384.24 530.612,1381.85 480.397,1381.85 
  "/>
<path clip-path="url(#clip342)" d="
M530.612 1376.81 L530.612 1384.24 L580.828 1384.24 L580.828 1376.81 L530.612 1376.81 L530.612 1376.81  Z
  " fill="#009af9" fill-rule="evenodd" fill-opacity="1"/>
<polyline clip-path="url(#clip342)" style="stroke:#000000; stroke-width:4; stroke-opacity:1; fill:none" points="
  530.612,1376.81 530.612,1384.24 580.828,1384.24 580.828,1376.81 530.612,1376.81 
  "/>
<path clip-path="url(#clip342)" d="
M580.828 1361.8 L580.828 1384.24 L631.043 1384.24 L631.043 1361.8 L580.828 1361.8 L580.828 1361.8  Z
  " fill="#009af9" fill-rule="evenodd" fill-opacity="1"/>
<polyline clip-path="url(#clip342)" style="stroke:#000000; stroke-width:4; stroke-opacity:1; fill:none" points="
  580.828,1361.8 580.828,1384.24 631.043,1384.24 631.043,1361.8 580.828,1361.8 
  "/>
<path clip-path="url(#clip342)" d="
M631.043 1331.62 L631.043 1384.24 L681.258 1384.24 L681.258 1331.62 L631.043 1331.62 L631.043 1331.62  Z
  " fill="#009af9" fill-rule="evenodd" fill-opacity="1"/>
<polyline clip-path="url(#clip342)" style="stroke:#000000; stroke-width:4; stroke-opacity:1; fill:none" points="
  631.043,1331.62 631.043,1384.24 681.258,1384.24 681.258,1331.62 631.043,1331.62 
  "/>
<path clip-path="url(#clip342)" d="
M681.258 1271.55 L681.258 1384.24 L731.474 1384.24 L731.474 1271.55 L681.258 1271.55 L681.258 1271.55  Z
  " fill="#009af9" fill-rule="evenodd" fill-opacity="1"/>
<polyline clip-path="url(#clip342)" style="stroke:#000000; stroke-width:4; stroke-opacity:1; fill:none" points="
  681.258,1271.55 681.258,1384.24 731.474,1384.24 731.474,1271.55 681.258,1271.55 
  "/>
<path clip-path="url(#clip342)" d="
M731.474 1170.63 L731.474 1384.24 L781.689 1384.24 L781.689 1170.63 L731.474 1170.63 L731.474 1170.63  Z
  " fill="#009af9" fill-rule="evenodd" fill-opacity="1"/>
<polyline clip-path="url(#clip342)" style="stroke:#000000; stroke-width:4; stroke-opacity:1; fill:none" points="
  731.474,1170.63 731.474,1384.24 781.689,1384.24 781.689,1170.63 731.474,1170.63 
  "/>
<path clip-path="url(#clip342)" d="
M781.689 1035.37 L781.689 1384.24 L831.904 1384.24 L831.904 1035.37 L781.689 1035.37 L781.689 1035.37  Z
  " fill="#009af9" fill-rule="evenodd" fill-opacity="1"/>
<polyline clip-path="url(#clip342)" style="stroke:#000000; stroke-width:4; stroke-opacity:1; fill:none" points="
  781.689,1035.37 781.689,1384.24 831.904,1384.24 831.904,1035.37 781.689,1035.37 
  "/>
<path clip-path="url(#clip342)" d="
M831.904 858.602 L831.904 1384.24 L882.12 1384.24 L882.12 858.602 L831.904 858.602 L831.904 858.602  Z
  " fill="#009af9" fill-rule="evenodd" fill-opacity="1"/>
<polyline clip-path="url(#clip342)" style="stroke:#000000; stroke-width:4; stroke-opacity:1; fill:none" points="
  831.904,858.602 831.904,1384.24 882.12,1384.24 882.12,858.602 831.904,858.602 
  "/>
<path clip-path="url(#clip342)" d="
M882.12 655.843 L882.12 1384.24 L932.335 1384.24 L932.335 655.843 L882.12 655.843 L882.12 655.843  Z
  " fill="#009af9" fill-rule="evenodd" fill-opacity="1"/>
<polyline clip-path="url(#clip342)" style="stroke:#000000; stroke-width:4; stroke-opacity:1; fill:none" points="
  882.12,655.843 882.12,1384.24 932.335,1384.24 932.335,655.843 882.12,655.843 
  "/>
<path clip-path="url(#clip342)" d="
M932.335 447.435 L932.335 1384.24 L982.55 1384.24 L982.55 447.435 L932.335 447.435 L932.335 447.435  Z
  " fill="#009af9" fill-rule="evenodd" fill-opacity="1"/>
<polyline clip-path="url(#clip342)" style="stroke:#000000; stroke-width:4; stroke-opacity:1; fill:none" points="
  932.335,447.435 932.335,1384.24 982.55,1384.24 982.55,447.435 932.335,447.435 
  "/>
<path clip-path="url(#clip342)" d="
M982.55 270.163 L982.55 1384.24 L1032.77 1384.24 L1032.77 270.163 L982.55 270.163 L982.55 270.163  Z
  " fill="#009af9" fill-rule="evenodd" fill-opacity="1"/>
<polyline clip-path="url(#clip342)" style="stroke:#000000; stroke-width:4; stroke-opacity:1; fill:none" points="
  982.55,270.163 982.55,1384.24 1032.77,1384.24 1032.77,270.163 982.55,270.163 
  "/>
<path clip-path="url(#clip342)" d="
M1032.77 142.832 L1032.77 1384.24 L1082.98 1384.24 L1082.98 142.832 L1032.77 142.832 L1032.77 142.832  Z
  " fill="#009af9" fill-rule="evenodd" fill-opacity="1"/>
<polyline clip-path="url(#clip342)" style="stroke:#000000; stroke-width:4; stroke-opacity:1; fill:none" points="
  1032.77,142.832 1032.77,1384.24 1082.98,1384.24 1082.98,142.832 1032.77,142.832 
  "/>
<path clip-path="url(#clip342)" d="
M1082.98 86.9502 L1082.98 1384.24 L1133.2 1384.24 L1133.2 86.9502 L1082.98 86.9502 L1082.98 86.9502  Z
  " fill="#009af9" fill-rule="evenodd" fill-opacity="1"/>
<polyline clip-path="url(#clip342)" style="stroke:#000000; stroke-width:4; stroke-opacity:1; fill:none" points="
  1082.98,86.9502 1082.98,1384.24 1133.2,1384.24 1133.2,86.9502 1082.98,86.9502 
  "/>
<path clip-path="url(#clip342)" d="
M1133.2 107.186 L1133.2 1384.24 L1183.41 1384.24 L1183.41 107.186 L1133.2 107.186 L1133.2 107.186  Z
  " fill="#009af9" fill-rule="evenodd" fill-opacity="1"/>
<polyline clip-path="url(#clip342)" style="stroke:#000000; stroke-width:4; stroke-opacity:1; fill:none" points="
  1133.2,107.186 1133.2,1384.24 1183.41,1384.24 1183.41,107.186 1133.2,107.186 
  "/>
<path clip-path="url(#clip342)" d="
M1183.41 201.949 L1183.41 1384.24 L1233.63 1384.24 L1233.63 201.949 L1183.41 201.949 L1183.41 201.949  Z
  " fill="#009af9" fill-rule="evenodd" fill-opacity="1"/>
<polyline clip-path="url(#clip342)" style="stroke:#000000; stroke-width:4; stroke-opacity:1; fill:none" points="
  1183.41,201.949 1183.41,1384.24 1233.63,1384.24 1233.63,201.949 1183.41,201.949 
  "/>
<path clip-path="url(#clip342)" d="
M1233.63 352.009 L1233.63 1384.24 L1283.84 1384.24 L1283.84 352.009 L1233.63 352.009 L1233.63 352.009  Z
  " fill="#009af9" fill-rule="evenodd" fill-opacity="1"/>
<polyline clip-path="url(#clip342)" style="stroke:#000000; stroke-width:4; stroke-opacity:1; fill:none" points="
  1233.63,352.009 1233.63,1384.24 1283.84,1384.24 1283.84,352.009 1233.63,352.009 
  "/>
<path clip-path="url(#clip342)" d="
M1283.84 517.824 L1283.84 1384.24 L1334.06 1384.24 L1334.06 517.824 L1283.84 517.824 L1283.84 517.824  Z
  " fill="#009af9" fill-rule="evenodd" fill-opacity="1"/>
<polyline clip-path="url(#clip342)" style="stroke:#000000; stroke-width:4; stroke-opacity:1; fill:none" points="
  1283.84,517.824 1283.84,1384.24 1334.06,1384.24 1334.06,517.824 1283.84,517.824 
  "/>
<path clip-path="url(#clip342)" d="
M1334.06 701.805 L1334.06 1384.24 L1384.27 1384.24 L1384.27 701.805 L1334.06 701.805 L1334.06 701.805  Z
  " fill="#009af9" fill-rule="evenodd" fill-opacity="1"/>
<polyline clip-path="url(#clip342)" style="stroke:#000000; stroke-width:4; stroke-opacity:1; fill:none" points="
  1334.06,701.805 1334.06,1384.24 1384.27,1384.24 1384.27,701.805 1334.06,701.805 
  "/>
<path clip-path="url(#clip342)" d="
M1384.27 858.523 L1384.27 1384.24 L1434.49 1384.24 L1434.49 858.523 L1384.27 858.523 L1384.27 858.523  Z
  " fill="#009af9" fill-rule="evenodd" fill-opacity="1"/>
<polyline clip-path="url(#clip342)" style="stroke:#000000; stroke-width:4; stroke-opacity:1; fill:none" points="
  1384.27,858.523 1384.27,1384.24 1434.49,1384.24 1434.49,858.523 1384.27,858.523 
  "/>
<path clip-path="url(#clip342)" d="
M1434.49 1002.91 L1434.49 1384.24 L1484.7 1384.24 L1484.7 1002.91 L1434.49 1002.91 L1434.49 1002.91  Z
  " fill="#009af9" fill-rule="evenodd" fill-opacity="1"/>
<polyline clip-path="url(#clip342)" style="stroke:#000000; stroke-width:4; stroke-opacity:1; fill:none" points="
  1434.49,1002.91 1434.49,1384.24 1484.7,1384.24 1484.7,1002.91 1434.49,1002.91 
  "/>
<path clip-path="url(#clip342)" d="
M1484.7 1118.97 L1484.7 1384.24 L1534.92 1384.24 L1534.92 1118.97 L1484.7 1118.97 L1484.7 1118.97  Z
  " fill="#009af9" fill-rule="evenodd" fill-opacity="1"/>
<polyline clip-path="url(#clip342)" style="stroke:#000000; stroke-width:4; stroke-opacity:1; fill:none" points="
  1484.7,1118.97 1484.7,1384.24 1534.92,1384.24 1534.92,1118.97 1484.7,1118.97 
  "/>
<path clip-path="url(#clip342)" d="
M1534.92 1211.9 L1534.92 1384.24 L1585.13 1384.24 L1585.13 1211.9 L1534.92 1211.9 L1534.92 1211.9  Z
  " fill="#009af9" fill-rule="evenodd" fill-opacity="1"/>
<polyline clip-path="url(#clip342)" style="stroke:#000000; stroke-width:4; stroke-opacity:1; fill:none" points="
  1534.92,1211.9 1534.92,1384.24 1585.13,1384.24 1585.13,1211.9 1534.92,1211.9 
  "/>
<path clip-path="url(#clip342)" d="
M1585.13 1276.03 L1585.13 1384.24 L1635.35 1384.24 L1635.35 1276.03 L1585.13 1276.03 L1585.13 1276.03  Z
  " fill="#009af9" fill-rule="evenodd" fill-opacity="1"/>
<polyline clip-path="url(#clip342)" style="stroke:#000000; stroke-width:4; stroke-opacity:1; fill:none" points="
  1585.13,1276.03 1585.13,1384.24 1635.35,1384.24 1635.35,1276.03 1585.13,1276.03 
  "/>
<path clip-path="url(#clip342)" d="
M1635.35 1313 L1635.35 1384.24 L1685.56 1384.24 L1685.56 1313 L1635.35 1313 L1635.35 1313  Z
  " fill="#009af9" fill-rule="evenodd" fill-opacity="1"/>
<polyline clip-path="url(#clip342)" style="stroke:#000000; stroke-width:4; stroke-opacity:1; fill:none" points="
  1635.35,1313 1635.35,1384.24 1685.56,1384.24 1685.56,1313 1635.35,1313 
  "/>
<path clip-path="url(#clip342)" d="
M1685.56 1342.47 L1685.56 1384.24 L1735.78 1384.24 L1735.78 1342.47 L1685.56 1342.47 L1685.56 1342.47  Z
  " fill="#009af9" fill-rule="evenodd" fill-opacity="1"/>
<polyline clip-path="url(#clip342)" style="stroke:#000000; stroke-width:4; stroke-opacity:1; fill:none" points="
  1685.56,1342.47 1685.56,1384.24 1735.78,1384.24 1735.78,1342.47 1685.56,1342.47 
  "/>
<path clip-path="url(#clip342)" d="
M1735.78 1361.06 L1735.78 1384.24 L1786 1384.24 L1786 1361.06 L1735.78 1361.06 L1735.78 1361.06  Z
  " fill="#009af9" fill-rule="evenodd" fill-opacity="1"/>
<polyline clip-path="url(#clip342)" style="stroke:#000000; stroke-width:4; stroke-opacity:1; fill:none" points="
  1735.78,1361.06 1735.78,1384.24 1786,1384.24 1786,1361.06 1735.78,1361.06 
  "/>
<path clip-path="url(#clip342)" d="
M1786 1371.35 L1786 1384.24 L1836.21 1384.24 L1836.21 1371.35 L1786 1371.35 L1786 1371.35  Z
  " fill="#009af9" fill-rule="evenodd" fill-opacity="1"/>
<polyline clip-path="url(#clip342)" style="stroke:#000000; stroke-width:4; stroke-opacity:1; fill:none" points="
  1786,1371.35 1786,1384.24 1836.21,1384.24 1836.21,1371.35 1786,1371.35 
  "/>
<path clip-path="url(#clip342)" d="
M1836.21 1377.1 L1836.21 1384.24 L1886.43 1384.24 L1886.43 1377.1 L1836.21 1377.1 L1836.21 1377.1  Z
  " fill="#009af9" fill-rule="evenodd" fill-opacity="1"/>
<polyline clip-path="url(#clip342)" style="stroke:#000000; stroke-width:4; stroke-opacity:1; fill:none" points="
  1836.21,1377.1 1836.21,1384.24 1886.43,1384.24 1886.43,1377.1 1836.21,1377.1 
  "/>
<path clip-path="url(#clip342)" d="
M1886.43 1380.34 L1886.43 1384.24 L1936.64 1384.24 L1936.64 1380.34 L1886.43 1380.34 L1886.43 1380.34  Z
  " fill="#009af9" fill-rule="evenodd" fill-opacity="1"/>
<polyline clip-path="url(#clip342)" style="stroke:#000000; stroke-width:4; stroke-opacity:1; fill:none" points="
  1886.43,1380.34 1886.43,1384.24 1936.64,1384.24 1936.64,1380.34 1886.43,1380.34 
  "/>
<path clip-path="url(#clip342)" d="
M1936.64 1382.36 L1936.64 1384.24 L1986.86 1384.24 L1986.86 1382.36 L1936.64 1382.36 L1936.64 1382.36  Z
  " fill="#009af9" fill-rule="evenodd" fill-opacity="1"/>
<polyline clip-path="url(#clip342)" style="stroke:#000000; stroke-width:4; stroke-opacity:1; fill:none" points="
  1936.64,1382.36 1936.64,1384.24 1986.86,1384.24 1986.86,1382.36 1936.64,1382.36 
  "/>
<path clip-path="url(#clip342)" d="
M1986.86 1383.47 L1986.86 1384.24 L2037.07 1384.24 L2037.07 1383.47 L1986.86 1383.47 L1986.86 1383.47  Z
  " fill="#009af9" fill-rule="evenodd" fill-opacity="1"/>
<polyline clip-path="url(#clip342)" style="stroke:#000000; stroke-width:4; stroke-opacity:1; fill:none" points="
  1986.86,1383.47 1986.86,1384.24 2037.07,1384.24 2037.07,1383.47 1986.86,1383.47 
  "/>
<path clip-path="url(#clip342)" d="
M2037.07 1383.79 L2037.07 1384.24 L2087.29 1384.24 L2087.29 1383.79 L2037.07 1383.79 L2037.07 1383.79  Z
  " fill="#009af9" fill-rule="evenodd" fill-opacity="1"/>
<polyline clip-path="url(#clip342)" style="stroke:#000000; stroke-width:4; stroke-opacity:1; fill:none" points="
  2037.07,1383.79 2037.07,1384.24 2087.29,1384.24 2087.29,1383.79 2037.07,1383.79 
  "/>
<path clip-path="url(#clip342)" d="
M2087.29 1384.05 L2087.29 1384.24 L2137.5 1384.24 L2137.5 1384.05 L2087.29 1384.05 L2087.29 1384.05  Z
  " fill="#009af9" fill-rule="evenodd" fill-opacity="1"/>
<polyline clip-path="url(#clip342)" style="stroke:#000000; stroke-width:4; stroke-opacity:1; fill:none" points="
  2087.29,1384.05 2087.29,1384.24 2137.5,1384.24 2137.5,1384.05 2087.29,1384.05 
  "/>
<path clip-path="url(#clip342)" d="
M2137.5 1384.13 L2137.5 1384.24 L2187.72 1384.24 L2187.72 1384.13 L2137.5 1384.13 L2137.5 1384.13  Z
  " fill="#009af9" fill-rule="evenodd" fill-opacity="1"/>
<polyline clip-path="url(#clip342)" style="stroke:#000000; stroke-width:4; stroke-opacity:1; fill:none" points="
  2137.5,1384.13 2137.5,1384.24 2187.72,1384.24 2187.72,1384.13 2137.5,1384.13 
  "/>
<path clip-path="url(#clip342)" d="
M2187.72 1384.21 L2187.72 1384.24 L2237.93 1384.24 L2237.93 1384.21 L2187.72 1384.21 L2187.72 1384.21  Z
  " fill="#009af9" fill-rule="evenodd" fill-opacity="1"/>
<polyline clip-path="url(#clip342)" style="stroke:#000000; stroke-width:4; stroke-opacity:1; fill:none" points="
  2187.72,1384.21 2187.72,1384.24 2237.93,1384.24 2237.93,1384.21 2187.72,1384.21 
  "/>
<circle clip-path="url(#clip342)" cx="329.751" cy="1384.23" r="14" fill="#e26f46" fill-rule="evenodd" fill-opacity="1" stroke="#000000" stroke-opacity="1" stroke-width="3.2"/>
<circle clip-path="url(#clip342)" cx="379.966" cy="1384.13" r="14" fill="#e26f46" fill-rule="evenodd" fill-opacity="1" stroke="#000000" stroke-opacity="1" stroke-width="3.2"/>
<circle clip-path="url(#clip342)" cx="430.182" cy="1383.65" r="14" fill="#e26f46" fill-rule="evenodd" fill-opacity="1" stroke="#000000" stroke-opacity="1" stroke-width="3.2"/>
<circle clip-path="url(#clip342)" cx="480.397" cy="1381.77" r="14" fill="#e26f46" fill-rule="evenodd" fill-opacity="1" stroke="#000000" stroke-opacity="1" stroke-width="3.2"/>
<circle clip-path="url(#clip342)" cx="530.612" cy="1376.03" r="14" fill="#e26f46" fill-rule="evenodd" fill-opacity="1" stroke="#000000" stroke-opacity="1" stroke-width="3.2"/>
<circle clip-path="url(#clip342)" cx="580.828" cy="1361.43" r="14" fill="#e26f46" fill-rule="evenodd" fill-opacity="1" stroke="#000000" stroke-opacity="1" stroke-width="3.2"/>
<circle clip-path="url(#clip342)" cx="631.043" cy="1329.93" r="14" fill="#e26f46" fill-rule="evenodd" fill-opacity="1" stroke="#000000" stroke-opacity="1" stroke-width="3.2"/>
<circle clip-path="url(#clip342)" cx="681.258" cy="1271.1" r="14" fill="#e26f46" fill-rule="evenodd" fill-opacity="1" stroke="#000000" stroke-opacity="1" stroke-width="3.2"/>
<circle clip-path="url(#clip342)" cx="731.474" cy="1174.73" r="14" fill="#e26f46" fill-rule="evenodd" fill-opacity="1" stroke="#000000" stroke-opacity="1" stroke-width="3.2"/>
<circle clip-path="url(#clip342)" cx="781.689" cy="1035.05" r="14" fill="#e26f46" fill-rule="evenodd" fill-opacity="1" stroke="#000000" stroke-opacity="1" stroke-width="3.2"/>
<circle clip-path="url(#clip342)" cx="831.904" cy="855.169" r="14" fill="#e26f46" fill-rule="evenodd" fill-opacity="1" stroke="#000000" stroke-opacity="1" stroke-width="3.2"/>
<circle clip-path="url(#clip342)" cx="882.12" cy="649.42" r="14" fill="#e26f46" fill-rule="evenodd" fill-opacity="1" stroke="#000000" stroke-opacity="1" stroke-width="3.2"/>
<circle clip-path="url(#clip342)" cx="932.335" cy="442.164" r="14" fill="#e26f46" fill-rule="evenodd" fill-opacity="1" stroke="#000000" stroke-opacity="1" stroke-width="3.2"/>
<circle clip-path="url(#clip342)" cx="982.55" cy="262.721" r="14" fill="#e26f46" fill-rule="evenodd" fill-opacity="1" stroke="#000000" stroke-opacity="1" stroke-width="3.2"/>
<circle clip-path="url(#clip342)" cx="1032.77" cy="138.108" r="14" fill="#e26f46" fill-rule="evenodd" fill-opacity="1" stroke="#000000" stroke-opacity="1" stroke-width="3.2"/>
<circle clip-path="url(#clip342)" cx="1082.98" cy="86.1857" r="14" fill="#e26f46" fill-rule="evenodd" fill-opacity="1" stroke="#000000" stroke-opacity="1" stroke-width="3.2"/>
<circle clip-path="url(#clip342)" cx="1133.2" cy="111.638" r="14" fill="#e26f46" fill-rule="evenodd" fill-opacity="1" stroke="#000000" stroke-opacity="1" stroke-width="3.2"/>
<circle clip-path="url(#clip342)" cx="1183.41" cy="205.904" r="14" fill="#e26f46" fill-rule="evenodd" fill-opacity="1" stroke="#000000" stroke-opacity="1" stroke-width="3.2"/>
<circle clip-path="url(#clip342)" cx="1233.63" cy="350.612" r="14" fill="#e26f46" fill-rule="evenodd" fill-opacity="1" stroke="#000000" stroke-opacity="1" stroke-width="3.2"/>
<circle clip-path="url(#clip342)" cx="1283.84" cy="522.883" r="14" fill="#e26f46" fill-rule="evenodd" fill-opacity="1" stroke="#000000" stroke-opacity="1" stroke-width="3.2"/>
<circle clip-path="url(#clip342)" cx="1334.06" cy="700.623" r="14" fill="#e26f46" fill-rule="evenodd" fill-opacity="1" stroke="#000000" stroke-opacity="1" stroke-width="3.2"/>
<circle clip-path="url(#clip342)" cx="1384.27" cy="866.348" r="14" fill="#e26f46" fill-rule="evenodd" fill-opacity="1" stroke="#000000" stroke-opacity="1" stroke-width="3.2"/>
<circle clip-path="url(#clip342)" cx="1434.49" cy="1008.96" r="14" fill="#e26f46" fill-rule="evenodd" fill-opacity="1" stroke="#000000" stroke-opacity="1" stroke-width="3.2"/>
<circle clip-path="url(#clip342)" cx="1484.7" cy="1123.63" r="14" fill="#e26f46" fill-rule="evenodd" fill-opacity="1" stroke="#000000" stroke-opacity="1" stroke-width="3.2"/>
<circle clip-path="url(#clip342)" cx="1534.92" cy="1210.5" r="14" fill="#e26f46" fill-rule="evenodd" fill-opacity="1" stroke="#000000" stroke-opacity="1" stroke-width="3.2"/>
<circle clip-path="url(#clip342)" cx="1585.13" cy="1272.87" r="14" fill="#e26f46" fill-rule="evenodd" fill-opacity="1" stroke="#000000" stroke-opacity="1" stroke-width="3.2"/>
<circle clip-path="url(#clip342)" cx="1635.35" cy="1315.49" r="14" fill="#e26f46" fill-rule="evenodd" fill-opacity="1" stroke="#000000" stroke-opacity="1" stroke-width="3.2"/>
<circle clip-path="url(#clip342)" cx="1685.56" cy="1343.32" r="14" fill="#e26f46" fill-rule="evenodd" fill-opacity="1" stroke="#000000" stroke-opacity="1" stroke-width="3.2"/>
<circle clip-path="url(#clip342)" cx="1735.78" cy="1360.72" r="14" fill="#e26f46" fill-rule="evenodd" fill-opacity="1" stroke="#000000" stroke-opacity="1" stroke-width="3.2"/>
<circle clip-path="url(#clip342)" cx="1786" cy="1371.17" r="14" fill="#e26f46" fill-rule="evenodd" fill-opacity="1" stroke="#000000" stroke-opacity="1" stroke-width="3.2"/>
<circle clip-path="url(#clip342)" cx="1836.21" cy="1377.21" r="14" fill="#e26f46" fill-rule="evenodd" fill-opacity="1" stroke="#000000" stroke-opacity="1" stroke-width="3.2"/>
<circle clip-path="url(#clip342)" cx="1886.43" cy="1380.58" r="14" fill="#e26f46" fill-rule="evenodd" fill-opacity="1" stroke="#000000" stroke-opacity="1" stroke-width="3.2"/>
<circle clip-path="url(#clip342)" cx="1936.64" cy="1382.39" r="14" fill="#e26f46" fill-rule="evenodd" fill-opacity="1" stroke="#000000" stroke-opacity="1" stroke-width="3.2"/>
<circle clip-path="url(#clip342)" cx="1986.86" cy="1383.33" r="14" fill="#e26f46" fill-rule="evenodd" fill-opacity="1" stroke="#000000" stroke-opacity="1" stroke-width="3.2"/>
<circle clip-path="url(#clip342)" cx="2037.07" cy="1383.81" r="14" fill="#e26f46" fill-rule="evenodd" fill-opacity="1" stroke="#000000" stroke-opacity="1" stroke-width="3.2"/>
<circle clip-path="url(#clip342)" cx="2087.29" cy="1384.04" r="14" fill="#e26f46" fill-rule="evenodd" fill-opacity="1" stroke="#000000" stroke-opacity="1" stroke-width="3.2"/>
<circle clip-path="url(#clip342)" cx="2137.5" cy="1384.15" r="14" fill="#e26f46" fill-rule="evenodd" fill-opacity="1" stroke="#000000" stroke-opacity="1" stroke-width="3.2"/>
<circle clip-path="url(#clip342)" cx="2187.72" cy="1384.2" r="14" fill="#e26f46" fill-rule="evenodd" fill-opacity="1" stroke="#000000" stroke-opacity="1" stroke-width="3.2"/>
<circle clip-path="url(#clip342)" cx="2237.93" cy="1384.22" r="14" fill="#e26f46" fill-rule="evenodd" fill-opacity="1" stroke="#000000" stroke-opacity="1" stroke-width="3.2"/>
<circle clip-path="url(#clip342)" cx="2288.15" cy="1384.23" r="14" fill="#e26f46" fill-rule="evenodd" fill-opacity="1" stroke="#000000" stroke-opacity="1" stroke-width="3.2"/>
<path clip-path="url(#clip340)" d="
M2000.19 274.549 L2283.17 274.549 L2283.17 93.1086 L2000.19 93.1086  Z
  " fill="#ffffff" fill-rule="evenodd" fill-opacity="1"/>
<polyline clip-path="url(#clip340)" style="stroke:#000000; stroke-width:4; stroke-opacity:1; fill:none" points="
  2000.19,274.549 2283.17,274.549 2283.17,93.1086 2000.19,93.1086 2000.19,274.549 
  "/>
<path clip-path="url(#clip340)" d="
M2023.39 177.781 L2162.56 177.781 L2162.56 129.397 L2023.39 129.397 L2023.39 177.781  Z
  " fill="#009af9" fill-rule="evenodd" fill-opacity="1"/>
<polyline clip-path="url(#clip340)" style="stroke:#000000; stroke-width:4; stroke-opacity:1; fill:none" points="
  2023.39,177.781 2162.56,177.781 2162.56,129.397 2023.39,129.397 2023.39,177.781 
  "/>
<path clip-path="url(#clip340)" d="M 0 0 M2199.6 173.276 Q2197.8 177.906 2196.08 179.318 Q2194.37 180.73 2191.5 180.73 L2188.1 180.73 L2188.1 177.165 L2190.6 177.165 Q2192.36 177.165 2193.33 176.332 Q2194.3 175.498 2195.48 172.396 L2196.25 170.452 L2185.76 144.943 L2190.27 144.943 L2198.37 165.221 L2206.48 144.943 L2210.99 144.943 L2199.6 173.276 Z" fill="#000000" fill-rule="evenodd" fill-opacity="1" /><path clip-path="url(#clip340)" d="M 0 0 M2216.87 166.933 L2224.51 166.933 L2224.51 140.568 L2216.2 142.235 L2216.2 137.975 L2224.46 136.309 L2229.14 136.309 L2229.14 166.933 L2236.78 166.933 L2236.78 170.869 L2216.87 170.869 L2216.87 166.933 Z" fill="#000000" fill-rule="evenodd" fill-opacity="1" /><circle clip-path="url(#clip340)" cx="2092.98" cy="214.069" r="23" fill="#e26f46" fill-rule="evenodd" fill-opacity="1" stroke="#000000" stroke-opacity="1" stroke-width="5.12"/>
<path clip-path="url(#clip340)" d="M 0 0 M2199.6 233.756 Q2197.8 238.386 2196.08 239.798 Q2194.37 241.21 2191.5 241.21 L2188.1 241.21 L2188.1 237.645 L2190.6 237.645 Q2192.36 237.645 2193.33 236.812 Q2194.3 235.978 2195.48 232.876 L2196.25 230.932 L2185.76 205.423 L2190.27 205.423 L2198.37 225.701 L2206.48 205.423 L2210.99 205.423 L2199.6 233.756 Z" fill="#000000" fill-rule="evenodd" fill-opacity="1" /><path clip-path="url(#clip340)" d="M 0 0 M2220.09 227.413 L2236.41 227.413 L2236.41 231.349 L2214.46 231.349 L2214.46 227.413 Q2217.12 224.659 2221.71 220.029 Q2226.31 215.376 2227.5 214.034 Q2229.74 211.511 2230.62 209.775 Q2231.52 208.015 2231.52 206.326 Q2231.52 203.571 2229.58 201.835 Q2227.66 200.099 2224.56 200.099 Q2222.36 200.099 2219.9 200.863 Q2217.47 201.627 2214.69 203.177 L2214.69 198.455 Q2217.52 197.321 2219.97 196.742 Q2222.43 196.164 2224.46 196.164 Q2229.83 196.164 2233.03 198.849 Q2236.22 201.534 2236.22 206.025 Q2236.22 208.154 2235.41 210.076 Q2234.62 211.974 2232.52 214.566 Q2231.94 215.238 2228.84 218.455 Q2225.74 221.65 2220.09 227.413 Z" fill="#000000" fill-rule="evenodd" fill-opacity="1" /></svg>
