<?xml version="1.0" encoding="utf-8"?>
<svg xmlns="http://www.w3.org/2000/svg" xmlns:xlink="http://www.w3.org/1999/xlink" width="600" height="400" viewBox="0 0 2400 1600">
<defs>
  <clipPath id="clip560">
    <rect x="0" y="0" width="2400" height="1600"/>
  </clipPath>
</defs>
<path clip-path="url(#clip560)" d="
M0 1600 L2400 1600 L2400 0 L0 0  Z
  " fill="#ffffff" fill-rule="evenodd" fill-opacity="1"/>
<defs>
  <clipPath id="clip561">
    <rect x="480" y="0" width="1681" height="1600"/>
  </clipPath>
</defs>
<path clip-path="url(#clip560)" d="
M238.616 1423.18 L2352.76 1423.18 L2352.76 47.2441 L238.616 47.2441  Z
  " fill="#ffffff" fill-rule="evenodd" fill-opacity="1"/>
<defs>
  <clipPath id="clip562">
    <rect x="238" y="47" width="2115" height="1377"/>
  </clipPath>
</defs>
<polyline clip-path="url(#clip562)" style="stroke:#000000; stroke-width:2; stroke-opacity:0.1; fill:none" points="
  354.898,1423.18 354.898,47.2441 
  "/>
<polyline clip-path="url(#clip562)" style="stroke:#000000; stroke-width:2; stroke-opacity:0.1; fill:none" points="
  925.072,1423.18 925.072,47.2441 
  "/>
<polyline clip-path="url(#clip562)" style="stroke:#000000; stroke-width:2; stroke-opacity:0.1; fill:none" points="
  1495.25,1423.18 1495.25,47.2441 
  "/>
<polyline clip-path="url(#clip562)" style="stroke:#000000; stroke-width:2; stroke-opacity:0.1; fill:none" points="
  2065.42,1423.18 2065.42,47.2441 
  "/>
<polyline clip-path="url(#clip560)" style="stroke:#000000; stroke-width:4; stroke-opacity:1; fill:none" points="
  238.616,1423.18 2352.76,1423.18 
  "/>
<polyline clip-path="url(#clip560)" style="stroke:#000000; stroke-width:4; stroke-opacity:1; fill:none" points="
  354.898,1423.18 354.898,1406.67 
  "/>
<polyline clip-path="url(#clip560)" style="stroke:#000000; stroke-width:4; stroke-opacity:1; fill:none" points="
  925.072,1423.18 925.072,1406.67 
  "/>
<polyline clip-path="url(#clip560)" style="stroke:#000000; stroke-width:4; stroke-opacity:1; fill:none" points="
  1495.25,1423.18 1495.25,1406.67 
  "/>
<polyline clip-path="url(#clip560)" style="stroke:#000000; stroke-width:4; stroke-opacity:1; fill:none" points="
  2065.42,1423.18 2065.42,1406.67 
  "/>
<path clip-path="url(#clip560)" d="M 0 0 M354.898 1452.37 Q351.287 1452.37 349.458 1455.94 Q347.652 1459.48 347.652 1466.61 Q347.652 1473.71 349.458 1477.28 Q351.287 1480.82 354.898 1480.82 Q358.532 1480.82 360.337 1477.28 Q362.166 1473.71 362.166 1466.61 Q362.166 1459.48 360.337 1455.94 Q358.532 1452.37 354.898 1452.37 M354.898 1448.67 Q360.708 1448.67 363.763 1453.27 Q366.842 1457.86 366.842 1466.61 Q366.842 1475.33 363.763 1479.94 Q360.708 1484.52 354.898 1484.52 Q349.087 1484.52 346.009 1479.94 Q342.953 1475.33 342.953 1466.61 Q342.953 1457.86 346.009 1453.27 Q349.087 1448.67 354.898 1448.67 Z" fill="#000000" fill-rule="evenodd" fill-opacity="1" /><path clip-path="url(#clip560)" d="M 0 0 M901.948 1479.92 L909.586 1479.92 L909.586 1453.55 L901.276 1455.22 L901.276 1450.96 L909.54 1449.29 L914.216 1449.29 L914.216 1479.92 L921.855 1479.92 L921.855 1483.85 L901.948 1483.85 L901.948 1479.92 Z" fill="#000000" fill-rule="evenodd" fill-opacity="1" /><path clip-path="url(#clip560)" d="M 0 0 M936.924 1452.37 Q933.313 1452.37 931.484 1455.94 Q929.679 1459.48 929.679 1466.61 Q929.679 1473.71 931.484 1477.28 Q933.313 1480.82 936.924 1480.82 Q940.558 1480.82 942.364 1477.28 Q944.193 1473.71 944.193 1466.61 Q944.193 1459.48 942.364 1455.94 Q940.558 1452.37 936.924 1452.37 M936.924 1448.67 Q942.734 1448.67 945.79 1453.27 Q948.869 1457.86 948.869 1466.61 Q948.869 1475.33 945.79 1479.94 Q942.734 1484.52 936.924 1484.52 Q931.114 1484.52 928.035 1479.94 Q924.98 1475.33 924.98 1466.61 Q924.98 1457.86 928.035 1453.27 Q931.114 1448.67 936.924 1448.67 Z" fill="#000000" fill-rule="evenodd" fill-opacity="1" /><path clip-path="url(#clip560)" d="M 0 0 M1476.39 1479.92 L1492.71 1479.92 L1492.71 1483.85 L1470.77 1483.85 L1470.77 1479.92 Q1473.43 1477.16 1478.01 1472.53 Q1482.62 1467.88 1483.8 1466.54 Q1486.05 1464.01 1486.93 1462.28 Q1487.83 1460.52 1487.83 1458.83 Q1487.83 1456.07 1485.88 1454.34 Q1483.96 1452.6 1480.86 1452.6 Q1478.66 1452.6 1476.21 1453.37 Q1473.78 1454.13 1471 1455.68 L1471 1450.96 Q1473.82 1449.82 1476.28 1449.25 Q1478.73 1448.67 1480.77 1448.67 Q1486.14 1448.67 1489.33 1451.35 Q1492.53 1454.04 1492.53 1458.53 Q1492.53 1460.66 1491.72 1462.58 Q1490.93 1464.48 1488.82 1467.07 Q1488.24 1467.74 1485.14 1470.96 Q1482.04 1474.15 1476.39 1479.92 Z" fill="#000000" fill-rule="evenodd" fill-opacity="1" /><path clip-path="url(#clip560)" d="M 0 0 M1507.78 1452.37 Q1504.17 1452.37 1502.34 1455.94 Q1500.54 1459.48 1500.54 1466.61 Q1500.54 1473.71 1502.34 1477.28 Q1504.17 1480.82 1507.78 1480.82 Q1511.42 1480.82 1513.22 1477.28 Q1515.05 1473.71 1515.05 1466.61 Q1515.05 1459.48 1513.22 1455.94 Q1511.42 1452.37 1507.78 1452.37 M1507.78 1448.67 Q1513.59 1448.67 1516.65 1453.27 Q1519.73 1457.86 1519.73 1466.61 Q1519.73 1475.33 1516.65 1479.94 Q1513.59 1484.52 1507.78 1484.52 Q1501.97 1484.52 1498.89 1479.94 Q1495.84 1475.33 1495.84 1466.61 Q1495.84 1457.86 1498.89 1453.27 Q1501.97 1448.67 1507.78 1448.67 Z" fill="#000000" fill-rule="evenodd" fill-opacity="1" /><path clip-path="url(#clip560)" d="M 0 0 M2056.16 1465.22 Q2059.52 1465.94 2061.39 1468.2 Q2063.29 1470.47 2063.29 1473.81 Q2063.29 1478.92 2059.77 1481.72 Q2056.26 1484.52 2049.77 1484.52 Q2047.6 1484.52 2045.28 1484.08 Q2042.99 1483.67 2040.54 1482.81 L2040.54 1478.3 Q2042.48 1479.43 2044.8 1480.01 Q2047.11 1480.59 2049.64 1480.59 Q2054.03 1480.59 2056.32 1478.85 Q2058.64 1477.12 2058.64 1473.81 Q2058.64 1470.75 2056.49 1469.04 Q2054.36 1467.3 2050.54 1467.3 L2046.51 1467.3 L2046.51 1463.46 L2050.72 1463.46 Q2054.17 1463.46 2056 1462.09 Q2057.83 1460.7 2057.83 1458.11 Q2057.83 1455.45 2055.93 1454.04 Q2054.06 1452.6 2050.54 1452.6 Q2048.62 1452.6 2046.42 1453.02 Q2044.22 1453.44 2041.58 1454.31 L2041.58 1450.15 Q2044.24 1449.41 2046.56 1449.04 Q2048.89 1448.67 2050.95 1448.67 Q2056.28 1448.67 2059.38 1451.1 Q2062.48 1453.5 2062.48 1457.63 Q2062.48 1460.5 2060.84 1462.49 Q2059.2 1464.45 2056.16 1465.22 Z" fill="#000000" fill-rule="evenodd" fill-opacity="1" /><path clip-path="url(#clip560)" d="M 0 0 M2078.36 1452.37 Q2074.75 1452.37 2072.92 1455.94 Q2071.12 1459.48 2071.12 1466.61 Q2071.12 1473.71 2072.92 1477.28 Q2074.75 1480.82 2078.36 1480.82 Q2082 1480.82 2083.8 1477.28 Q2085.63 1473.71 2085.63 1466.61 Q2085.63 1459.48 2083.8 1455.94 Q2082 1452.37 2078.36 1452.37 M2078.36 1448.67 Q2084.17 1448.67 2087.23 1453.27 Q2090.31 1457.86 2090.31 1466.61 Q2090.31 1475.33 2087.23 1479.94 Q2084.17 1484.52 2078.36 1484.52 Q2072.55 1484.52 2069.47 1479.94 Q2066.42 1475.33 2066.42 1466.61 Q2066.42 1457.86 2069.47 1453.27 Q2072.55 1448.67 2078.36 1448.67 Z" fill="#000000" fill-rule="evenodd" fill-opacity="1" /><path clip-path="url(#clip560)" d="M 0 0 M1312.3 1532.4 L1299.41 1549.74 L1312.97 1568.04 L1306.06 1568.04 L1295.69 1554.04 L1285.31 1568.04 L1278.4 1568.04 L1292.25 1549.39 L1279.58 1532.4 L1286.49 1532.4 L1295.94 1545.1 L1305.39 1532.4 L1312.3 1532.4 Z" fill="#000000" fill-rule="evenodd" fill-opacity="1" /><polyline clip-path="url(#clip562)" style="stroke:#000000; stroke-width:2; stroke-opacity:0.1; fill:none" points="
  238.616,1384.24 2352.76,1384.24 
  "/>
<polyline clip-path="url(#clip562)" style="stroke:#000000; stroke-width:2; stroke-opacity:0.1; fill:none" points="
  238.616,1086.15 2352.76,1086.15 
  "/>
<polyline clip-path="url(#clip562)" style="stroke:#000000; stroke-width:2; stroke-opacity:0.1; fill:none" points="
  238.616,788.068 2352.76,788.068 
  "/>
<polyline clip-path="url(#clip562)" style="stroke:#000000; stroke-width:2; stroke-opacity:0.1; fill:none" points="
  238.616,489.982 2352.76,489.982 
  "/>
<polyline clip-path="url(#clip562)" style="stroke:#000000; stroke-width:2; stroke-opacity:0.1; fill:none" points="
  238.616,191.897 2352.76,191.897 
  "/>
<polyline clip-path="url(#clip560)" style="stroke:#000000; stroke-width:4; stroke-opacity:1; fill:none" points="
  238.616,1423.18 238.616,47.2441 
  "/>
<polyline clip-path="url(#clip560)" style="stroke:#000000; stroke-width:4; stroke-opacity:1; fill:none" points="
  238.616,1384.24 263.986,1384.24 
  "/>
<polyline clip-path="url(#clip560)" style="stroke:#000000; stroke-width:4; stroke-opacity:1; fill:none" points="
  238.616,1086.15 263.986,1086.15 
  "/>
<polyline clip-path="url(#clip560)" style="stroke:#000000; stroke-width:4; stroke-opacity:1; fill:none" points="
  238.616,788.068 263.986,788.068 
  "/>
<polyline clip-path="url(#clip560)" style="stroke:#000000; stroke-width:4; stroke-opacity:1; fill:none" points="
  238.616,489.982 263.986,489.982 
  "/>
<polyline clip-path="url(#clip560)" style="stroke:#000000; stroke-width:4; stroke-opacity:1; fill:none" points="
  238.616,191.897 263.986,191.897 
  "/>
<path clip-path="url(#clip560)" d="M 0 0 M126.691 1370.04 Q123.08 1370.04 121.251 1373.6 Q119.445 1377.14 119.445 1384.27 Q119.445 1391.38 121.251 1394.94 Q123.08 1398.49 126.691 1398.49 Q130.325 1398.49 132.13 1394.94 Q133.959 1391.38 133.959 1384.27 Q133.959 1377.14 132.13 1373.6 Q130.325 1370.04 126.691 1370.04 M126.691 1366.33 Q132.501 1366.33 135.556 1370.94 Q138.635 1375.52 138.635 1384.27 Q138.635 1393 135.556 1397.61 Q132.501 1402.19 126.691 1402.19 Q120.88 1402.19 117.802 1397.61 Q114.746 1393 114.746 1384.27 Q114.746 1375.52 117.802 1370.94 Q120.88 1366.33 126.691 1366.33 Z" fill="#000000" fill-rule="evenodd" fill-opacity="1" /><path clip-path="url(#clip560)" d="M 0 0 M143.704 1395.64 L148.589 1395.64 L148.589 1401.52 L143.704 1401.52 L143.704 1395.64 Z" fill="#000000" fill-rule="evenodd" fill-opacity="1" /><path clip-path="url(#clip560)" d="M 0 0 M163.658 1370.04 Q160.047 1370.04 158.218 1373.6 Q156.413 1377.14 156.413 1384.27 Q156.413 1391.38 158.218 1394.94 Q160.047 1398.49 163.658 1398.49 Q167.292 1398.49 169.098 1394.94 Q170.927 1391.38 170.927 1384.27 Q170.927 1377.14 169.098 1373.6 Q167.292 1370.04 163.658 1370.04 M163.658 1366.33 Q169.468 1366.33 172.524 1370.94 Q175.602 1375.52 175.602 1384.27 Q175.602 1393 172.524 1397.61 Q169.468 1402.19 163.658 1402.19 Q157.848 1402.19 154.769 1397.61 Q151.714 1393 151.714 1384.27 Q151.714 1375.52 154.769 1370.94 Q157.848 1366.33 163.658 1366.33 Z" fill="#000000" fill-rule="evenodd" fill-opacity="1" /><path clip-path="url(#clip560)" d="M 0 0 M190.672 1370.04 Q187.061 1370.04 185.232 1373.6 Q183.426 1377.14 183.426 1384.27 Q183.426 1391.38 185.232 1394.94 Q187.061 1398.49 190.672 1398.49 Q194.306 1398.49 196.112 1394.94 Q197.94 1391.38 197.94 1384.27 Q197.94 1377.14 196.112 1373.6 Q194.306 1370.04 190.672 1370.04 M190.672 1366.33 Q196.482 1366.33 199.537 1370.94 Q202.616 1375.52 202.616 1384.27 Q202.616 1393 199.537 1397.61 Q196.482 1402.19 190.672 1402.19 Q184.862 1402.19 181.783 1397.61 Q178.727 1393 178.727 1384.27 Q178.727 1375.52 181.783 1370.94 Q184.862 1366.33 190.672 1366.33 Z" fill="#000000" fill-rule="evenodd" fill-opacity="1" /><path clip-path="url(#clip560)" d="M 0 0 M128.288 1071.95 Q124.677 1071.95 122.848 1075.52 Q121.043 1079.06 121.043 1086.19 Q121.043 1093.29 122.848 1096.86 Q124.677 1100.4 128.288 1100.4 Q131.922 1100.4 133.728 1096.86 Q135.556 1093.29 135.556 1086.19 Q135.556 1079.06 133.728 1075.52 Q131.922 1071.95 128.288 1071.95 M128.288 1068.25 Q134.098 1068.25 137.154 1072.85 Q140.232 1077.44 140.232 1086.19 Q140.232 1094.91 137.154 1099.52 Q134.098 1104.1 128.288 1104.1 Q122.478 1104.1 119.399 1099.52 Q116.343 1094.91 116.343 1086.19 Q116.343 1077.44 119.399 1072.85 Q122.478 1068.25 128.288 1068.25 Z" fill="#000000" fill-rule="evenodd" fill-opacity="1" /><path clip-path="url(#clip560)" d="M 0 0 M145.302 1097.55 L150.186 1097.55 L150.186 1103.43 L145.302 1103.43 L145.302 1097.55 Z" fill="#000000" fill-rule="evenodd" fill-opacity="1" /><path clip-path="url(#clip560)" d="M 0 0 M165.255 1071.95 Q161.644 1071.95 159.815 1075.52 Q158.01 1079.06 158.01 1086.19 Q158.01 1093.29 159.815 1096.86 Q161.644 1100.4 165.255 1100.4 Q168.889 1100.4 170.695 1096.86 Q172.524 1093.29 172.524 1086.19 Q172.524 1079.06 170.695 1075.52 Q168.889 1071.95 165.255 1071.95 M165.255 1068.25 Q171.065 1068.25 174.121 1072.85 Q177.2 1077.44 177.2 1086.19 Q177.2 1094.91 174.121 1099.52 Q171.065 1104.1 165.255 1104.1 Q159.445 1104.1 156.366 1099.52 Q153.311 1094.91 153.311 1086.19 Q153.311 1077.44 156.366 1072.85 Q159.445 1068.25 165.255 1068.25 Z" fill="#000000" fill-rule="evenodd" fill-opacity="1" /><path clip-path="url(#clip560)" d="M 0 0 M186.297 1099.5 L202.616 1099.5 L202.616 1103.43 L180.672 1103.43 L180.672 1099.5 Q183.334 1096.74 187.917 1092.11 Q192.524 1087.46 193.704 1086.12 Q195.95 1083.6 196.829 1081.86 Q197.732 1080.1 197.732 1078.41 Q197.732 1075.66 195.787 1073.92 Q193.866 1072.18 190.764 1072.18 Q188.565 1072.18 186.112 1072.95 Q183.681 1073.71 180.903 1075.26 L180.903 1070.54 Q183.727 1069.41 186.181 1068.83 Q188.635 1068.25 190.672 1068.25 Q196.042 1068.25 199.237 1070.93 Q202.431 1073.62 202.431 1078.11 Q202.431 1080.24 201.621 1082.16 Q200.834 1084.06 198.727 1086.65 Q198.149 1087.32 195.047 1090.54 Q191.945 1093.73 186.297 1099.5 Z" fill="#000000" fill-rule="evenodd" fill-opacity="1" /><path clip-path="url(#clip560)" d="M 0 0 M126.205 773.866 Q122.593 773.866 120.765 777.431 Q118.959 780.973 118.959 788.102 Q118.959 795.209 120.765 798.774 Q122.593 802.315 126.205 802.315 Q129.839 802.315 131.644 798.774 Q133.473 795.209 133.473 788.102 Q133.473 780.973 131.644 777.431 Q129.839 773.866 126.205 773.866 M126.205 770.163 Q132.015 770.163 135.07 774.769 Q138.149 779.352 138.149 788.102 Q138.149 796.829 135.07 801.436 Q132.015 806.019 126.205 806.019 Q120.394 806.019 117.316 801.436 Q114.26 796.829 114.26 788.102 Q114.26 779.352 117.316 774.769 Q120.394 770.163 126.205 770.163 Z" fill="#000000" fill-rule="evenodd" fill-opacity="1" /><path clip-path="url(#clip560)" d="M 0 0 M143.218 799.468 L148.103 799.468 L148.103 805.348 L143.218 805.348 L143.218 799.468 Z" fill="#000000" fill-rule="evenodd" fill-opacity="1" /><path clip-path="url(#clip560)" d="M 0 0 M163.172 773.866 Q159.561 773.866 157.732 777.431 Q155.927 780.973 155.927 788.102 Q155.927 795.209 157.732 798.774 Q159.561 802.315 163.172 802.315 Q166.806 802.315 168.612 798.774 Q170.44 795.209 170.44 788.102 Q170.44 780.973 168.612 777.431 Q166.806 773.866 163.172 773.866 M163.172 770.163 Q168.982 770.163 172.038 774.769 Q175.116 779.352 175.116 788.102 Q175.116 796.829 172.038 801.436 Q168.982 806.019 163.172 806.019 Q157.362 806.019 154.283 801.436 Q151.228 796.829 151.228 788.102 Q151.228 779.352 154.283 774.769 Q157.362 770.163 163.172 770.163 Z" fill="#000000" fill-rule="evenodd" fill-opacity="1" /><path clip-path="url(#clip560)" d="M 0 0 M193.033 774.862 L181.227 793.311 L193.033 793.311 L193.033 774.862 M191.806 770.788 L197.686 770.788 L197.686 793.311 L202.616 793.311 L202.616 797.199 L197.686 797.199 L197.686 805.348 L193.033 805.348 L193.033 797.199 L177.431 797.199 L177.431 792.686 L191.806 770.788 Z" fill="#000000" fill-rule="evenodd" fill-opacity="1" /><path clip-path="url(#clip560)" d="M 0 0 M126.529 475.781 Q122.918 475.781 121.089 479.346 Q119.283 482.887 119.283 490.017 Q119.283 497.123 121.089 500.688 Q122.918 504.23 126.529 504.23 Q130.163 504.23 131.968 500.688 Q133.797 497.123 133.797 490.017 Q133.797 482.887 131.968 479.346 Q130.163 475.781 126.529 475.781 M126.529 472.077 Q132.339 472.077 135.394 476.684 Q138.473 481.267 138.473 490.017 Q138.473 498.744 135.394 503.35 Q132.339 507.933 126.529 507.933 Q120.718 507.933 117.64 503.35 Q114.584 498.744 114.584 490.017 Q114.584 481.267 117.64 476.684 Q120.718 472.077 126.529 472.077 Z" fill="#000000" fill-rule="evenodd" fill-opacity="1" /><path clip-path="url(#clip560)" d="M 0 0 M143.542 501.383 L148.427 501.383 L148.427 507.262 L143.542 507.262 L143.542 501.383 Z" fill="#000000" fill-rule="evenodd" fill-opacity="1" /><path clip-path="url(#clip560)" d="M 0 0 M163.496 475.781 Q159.885 475.781 158.056 479.346 Q156.251 482.887 156.251 490.017 Q156.251 497.123 158.056 500.688 Q159.885 504.23 163.496 504.23 Q167.13 504.23 168.936 500.688 Q170.764 497.123 170.764 490.017 Q170.764 482.887 168.936 479.346 Q167.13 475.781 163.496 475.781 M163.496 472.077 Q169.306 472.077 172.362 476.684 Q175.44 481.267 175.44 490.017 Q175.44 498.744 172.362 503.35 Q169.306 507.933 163.496 507.933 Q157.686 507.933 154.607 503.35 Q151.552 498.744 151.552 490.017 Q151.552 481.267 154.607 476.684 Q157.686 472.077 163.496 472.077 Z" fill="#000000" fill-rule="evenodd" fill-opacity="1" /><path clip-path="url(#clip560)" d="M 0 0 M191.088 488.119 Q187.94 488.119 186.088 490.272 Q184.26 492.424 184.26 496.174 Q184.26 499.901 186.088 502.077 Q187.94 504.23 191.088 504.23 Q194.237 504.23 196.065 502.077 Q197.917 499.901 197.917 496.174 Q197.917 492.424 196.065 490.272 Q194.237 488.119 191.088 488.119 M200.371 473.466 L200.371 477.725 Q198.612 476.892 196.806 476.452 Q195.024 476.012 193.264 476.012 Q188.635 476.012 186.181 479.137 Q183.751 482.262 183.403 488.582 Q184.769 486.568 186.829 485.503 Q188.889 484.415 191.366 484.415 Q196.575 484.415 199.584 487.586 Q202.616 490.735 202.616 496.174 Q202.616 501.498 199.468 504.716 Q196.32 507.933 191.088 507.933 Q185.093 507.933 181.922 503.35 Q178.751 498.744 178.751 490.017 Q178.751 481.823 182.639 476.961 Q186.528 472.077 193.079 472.077 Q194.838 472.077 196.621 472.424 Q198.426 472.772 200.371 473.466 Z" fill="#000000" fill-rule="evenodd" fill-opacity="1" /><path clip-path="url(#clip560)" d="M 0 0 M126.783 177.696 Q123.172 177.696 121.343 181.26 Q119.538 184.802 119.538 191.932 Q119.538 199.038 121.343 202.603 Q123.172 206.144 126.783 206.144 Q130.417 206.144 132.223 202.603 Q134.052 199.038 134.052 191.932 Q134.052 184.802 132.223 181.26 Q130.417 177.696 126.783 177.696 M126.783 173.992 Q132.593 173.992 135.649 178.598 Q138.728 183.182 138.728 191.932 Q138.728 200.658 135.649 205.265 Q132.593 209.848 126.783 209.848 Q120.973 209.848 117.894 205.265 Q114.839 200.658 114.839 191.932 Q114.839 183.182 117.894 178.598 Q120.973 173.992 126.783 173.992 Z" fill="#000000" fill-rule="evenodd" fill-opacity="1" /><path clip-path="url(#clip560)" d="M 0 0 M143.797 203.297 L148.681 203.297 L148.681 209.177 L143.797 209.177 L143.797 203.297 Z" fill="#000000" fill-rule="evenodd" fill-opacity="1" /><path clip-path="url(#clip560)" d="M 0 0 M163.751 177.696 Q160.14 177.696 158.311 181.26 Q156.505 184.802 156.505 191.932 Q156.505 199.038 158.311 202.603 Q160.14 206.144 163.751 206.144 Q167.385 206.144 169.19 202.603 Q171.019 199.038 171.019 191.932 Q171.019 184.802 169.19 181.26 Q167.385 177.696 163.751 177.696 M163.751 173.992 Q169.561 173.992 172.616 178.598 Q175.695 183.182 175.695 191.932 Q175.695 200.658 172.616 205.265 Q169.561 209.848 163.751 209.848 Q157.94 209.848 154.862 205.265 Q151.806 200.658 151.806 191.932 Q151.806 183.182 154.862 178.598 Q157.94 173.992 163.751 173.992 Z" fill="#000000" fill-rule="evenodd" fill-opacity="1" /><path clip-path="url(#clip560)" d="M 0 0 M190.764 192.765 Q187.431 192.765 185.51 194.547 Q183.612 196.33 183.612 199.455 Q183.612 202.58 185.51 204.362 Q187.431 206.144 190.764 206.144 Q194.098 206.144 196.019 204.362 Q197.94 202.557 197.94 199.455 Q197.94 196.33 196.019 194.547 Q194.121 192.765 190.764 192.765 M186.088 190.774 Q183.079 190.033 181.389 187.973 Q179.723 185.913 179.723 182.95 Q179.723 178.807 182.663 176.399 Q185.626 173.992 190.764 173.992 Q195.926 173.992 198.866 176.399 Q201.806 178.807 201.806 182.95 Q201.806 185.913 200.116 187.973 Q198.45 190.033 195.463 190.774 Q198.843 191.561 200.718 193.853 Q202.616 196.145 202.616 199.455 Q202.616 204.478 199.537 207.163 Q196.482 209.848 190.764 209.848 Q185.047 209.848 181.968 207.163 Q178.913 204.478 178.913 199.455 Q178.913 196.145 180.811 193.853 Q182.709 191.561 186.088 190.774 M184.376 183.39 Q184.376 186.075 186.042 187.58 Q187.732 189.084 190.764 189.084 Q193.774 189.084 195.463 187.58 Q197.176 186.075 197.176 183.39 Q197.176 180.705 195.463 179.2 Q193.774 177.696 190.764 177.696 Q187.732 177.696 186.042 179.2 Q184.376 180.705 184.376 183.39 Z" fill="#000000" fill-rule="evenodd" fill-opacity="1" /><path clip-path="url(#clip560)" d="M 0 0 M21.7677 782.366 L39.6235 782.366 L39.6235 774.281 Q39.6235 769.794 37.3 767.343 Q34.9765 764.892 30.6797 764.892 Q26.4147 764.892 24.0912 767.343 Q21.7677 769.794 21.7677 774.281 L21.7677 782.366 M16.4842 788.795 L16.4842 774.281 Q16.4842 766.293 20.1126 762.218 Q23.7092 758.113 30.6797 758.113 Q37.7138 758.113 41.3104 762.218 Q44.907 766.293 44.907 774.281 L44.907 782.366 L64.0042 782.366 L64.0042 788.795 L16.4842 788.795 Z" fill="#000000" fill-rule="evenodd" fill-opacity="1" /><path clip-path="url(#clip560)" d="M 0 0 M14.5426 737.901 Q21.8632 742.167 29.0246 744.235 Q36.186 746.304 43.5384 746.304 Q50.8908 746.304 58.1159 744.235 Q65.3091 742.135 72.5979 737.901 L72.5979 742.994 Q65.1182 747.768 57.8931 750.155 Q50.668 752.511 43.5384 752.511 Q36.4406 752.511 29.2474 750.155 Q22.0542 747.8 14.5426 742.994 L14.5426 737.901 Z" fill="#000000" fill-rule="evenodd" fill-opacity="1" /><path clip-path="url(#clip560)" d="M 0 0 M28.3562 702.126 L45.7028 715.017 L64.0042 701.458 L64.0042 708.365 L49.9996 718.741 L64.0042 729.117 L64.0042 736.024 L45.3526 722.178 L28.3562 734.846 L28.3562 727.939 L41.0558 718.486 L28.3562 709.033 L28.3562 702.126 Z" fill="#000000" fill-rule="evenodd" fill-opacity="1" /><path clip-path="url(#clip560)" d="M 0 0 M14.5426 696.238 L14.5426 691.145 Q22.0542 686.371 29.2474 684.016 Q36.4406 681.629 43.5384 681.629 Q50.668 681.629 57.8931 684.016 Q65.1182 686.371 72.5979 691.145 L72.5979 696.238 Q65.3091 692.005 58.1159 689.936 Q50.8908 687.835 43.5384 687.835 Q36.186 687.835 29.0246 689.936 Q21.8632 692.005 14.5426 696.238 Z" fill="#000000" fill-rule="evenodd" fill-opacity="1" /><path clip-path="url(#clip562)" d="
M354.898 423.807 L354.898 1384.24 L411.915 1384.24 L411.915 423.807 L354.898 423.807 L354.898 423.807  Z
  " fill="#009af9" fill-rule="evenodd" fill-opacity="1"/>
<polyline clip-path="url(#clip562)" style="stroke:#000000; stroke-width:4; stroke-opacity:1; fill:none" points="
  354.898,423.807 354.898,1384.24 411.915,1384.24 411.915,423.807 354.898,423.807 
  "/>
<path clip-path="url(#clip562)" d="
M411.915 1006.86 L411.915 1384.24 L468.933 1384.24 L468.933 1006.86 L411.915 1006.86 L411.915 1006.86  Z
  " fill="#009af9" fill-rule="evenodd" fill-opacity="1"/>
<polyline clip-path="url(#clip562)" style="stroke:#000000; stroke-width:4; stroke-opacity:1; fill:none" points="
  411.915,1006.86 411.915,1384.24 468.933,1384.24 468.933,1006.86 411.915,1006.86 
  "/>
<path clip-path="url(#clip562)" d="
M468.933 1289.15 L468.933 1384.24 L525.95 1384.24 L525.95 1289.15 L468.933 1289.15 L468.933 1289.15  Z
  " fill="#009af9" fill-rule="evenodd" fill-opacity="1"/>
<polyline clip-path="url(#clip562)" style="stroke:#000000; stroke-width:4; stroke-opacity:1; fill:none" points="
  468.933,1289.15 468.933,1384.24 525.95,1384.24 525.95,1289.15 468.933,1289.15 
  "/>
<path clip-path="url(#clip562)" d="
M525.95 1315.08 L525.95 1384.24 L582.968 1384.24 L582.968 1315.08 L525.95 1315.08 L525.95 1315.08  Z
  " fill="#009af9" fill-rule="evenodd" fill-opacity="1"/>
<polyline clip-path="url(#clip562)" style="stroke:#000000; stroke-width:4; stroke-opacity:1; fill:none" points="
  525.95,1315.08 525.95,1384.24 582.968,1384.24 582.968,1315.08 525.95,1315.08 
  "/>
<path clip-path="url(#clip562)" d="
M582.968 1299.58 L582.968 1384.24 L639.985 1384.24 L639.985 1299.58 L582.968 1299.58 L582.968 1299.58  Z
  " fill="#009af9" fill-rule="evenodd" fill-opacity="1"/>
<polyline clip-path="url(#clip562)" style="stroke:#000000; stroke-width:4; stroke-opacity:1; fill:none" points="
  582.968,1299.58 582.968,1384.24 639.985,1384.24 639.985,1299.58 582.968,1299.58 
  "/>
<path clip-path="url(#clip562)" d="
M639.985 1240.26 L639.985 1384.24 L697.002 1384.24 L697.002 1240.26 L639.985 1240.26 L639.985 1240.26  Z
  " fill="#009af9" fill-rule="evenodd" fill-opacity="1"/>
<polyline clip-path="url(#clip562)" style="stroke:#000000; stroke-width:4; stroke-opacity:1; fill:none" points="
  639.985,1240.26 639.985,1384.24 697.002,1384.24 697.002,1240.26 639.985,1240.26 
  "/>
<path clip-path="url(#clip562)" d="
M697.002 1160.67 L697.002 1384.24 L754.02 1384.24 L754.02 1160.67 L697.002 1160.67 L697.002 1160.67  Z
  " fill="#009af9" fill-rule="evenodd" fill-opacity="1"/>
<polyline clip-path="url(#clip562)" style="stroke:#000000; stroke-width:4; stroke-opacity:1; fill:none" points="
  697.002,1160.67 697.002,1384.24 754.02,1384.24 754.02,1160.67 697.002,1160.67 
  "/>
<path clip-path="url(#clip562)" d="
M754.02 1045.32 L754.02 1384.24 L811.037 1384.24 L811.037 1045.32 L754.02 1045.32 L754.02 1045.32  Z
  " fill="#009af9" fill-rule="evenodd" fill-opacity="1"/>
<polyline clip-path="url(#clip562)" style="stroke:#000000; stroke-width:4; stroke-opacity:1; fill:none" points="
  754.02,1045.32 754.02,1384.24 811.037,1384.24 811.037,1045.32 754.02,1045.32 
  "/>
<path clip-path="url(#clip562)" d="
M811.037 890.311 L811.037 1384.24 L868.055 1384.24 L868.055 890.311 L811.037 890.311 L811.037 890.311  Z
  " fill="#009af9" fill-rule="evenodd" fill-opacity="1"/>
<polyline clip-path="url(#clip562)" style="stroke:#000000; stroke-width:4; stroke-opacity:1; fill:none" points="
  811.037,890.311 811.037,1384.24 868.055,1384.24 868.055,890.311 811.037,890.311 
  "/>
<path clip-path="url(#clip562)" d="
M868.055 700.43 L868.055 1384.24 L925.072 1384.24 L925.072 700.43 L868.055 700.43 L868.055 700.43  Z
  " fill="#009af9" fill-rule="evenodd" fill-opacity="1"/>
<polyline clip-path="url(#clip562)" style="stroke:#000000; stroke-width:4; stroke-opacity:1; fill:none" points="
  868.055,700.43 868.055,1384.24 925.072,1384.24 925.072,700.43 868.055,700.43 
  "/>
<path clip-path="url(#clip562)" d="
M925.072 503.098 L925.072 1384.24 L982.09 1384.24 L982.09 503.098 L925.072 503.098 L925.072 503.098  Z
  " fill="#009af9" fill-rule="evenodd" fill-opacity="1"/>
<polyline clip-path="url(#clip562)" style="stroke:#000000; stroke-width:4; stroke-opacity:1; fill:none" points="
  925.072,503.098 925.072,1384.24 982.09,1384.24 982.09,503.098 925.072,503.098 
  "/>
<path clip-path="url(#clip562)" d="
M982.09 292.054 L982.09 1384.24 L1039.11 1384.24 L1039.11 292.054 L982.09 292.054 L982.09 292.054  Z
  " fill="#009af9" fill-rule="evenodd" fill-opacity="1"/>
<polyline clip-path="url(#clip562)" style="stroke:#000000; stroke-width:4; stroke-opacity:1; fill:none" points="
  982.09,292.054 982.09,1384.24 1039.11,1384.24 1039.11,292.054 982.09,292.054 
  "/>
<path clip-path="url(#clip562)" d="
M1039.11 140.626 L1039.11 1384.24 L1096.12 1384.24 L1096.12 140.626 L1039.11 140.626 L1039.11 140.626  Z
  " fill="#009af9" fill-rule="evenodd" fill-opacity="1"/>
<polyline clip-path="url(#clip562)" style="stroke:#000000; stroke-width:4; stroke-opacity:1; fill:none" points="
  1039.11,140.626 1039.11,1384.24 1096.12,1384.24 1096.12,140.626 1039.11,140.626 
  "/>
<path clip-path="url(#clip562)" d="
M1096.12 94.1249 L1096.12 1384.24 L1153.14 1384.24 L1153.14 94.1249 L1096.12 94.1249 L1096.12 94.1249  Z
  " fill="#009af9" fill-rule="evenodd" fill-opacity="1"/>
<polyline clip-path="url(#clip562)" style="stroke:#000000; stroke-width:4; stroke-opacity:1; fill:none" points="
  1096.12,94.1249 1096.12,1384.24 1153.14,1384.24 1153.14,94.1249 1096.12,94.1249 
  "/>
<path clip-path="url(#clip562)" d="
M1153.14 87.8651 L1153.14 1384.24 L1210.16 1384.24 L1210.16 87.8651 L1153.14 87.8651 L1153.14 87.8651  Z
  " fill="#009af9" fill-rule="evenodd" fill-opacity="1"/>
<polyline clip-path="url(#clip562)" style="stroke:#000000; stroke-width:4; stroke-opacity:1; fill:none" points="
  1153.14,87.8651 1153.14,1384.24 1210.16,1384.24 1210.16,87.8651 1153.14,87.8651 
  "/>
<path clip-path="url(#clip562)" d="
M1210.16 150.463 L1210.16 1384.24 L1267.18 1384.24 L1267.18 150.463 L1210.16 150.463 L1210.16 150.463  Z
  " fill="#009af9" fill-rule="evenodd" fill-opacity="1"/>
<polyline clip-path="url(#clip562)" style="stroke:#000000; stroke-width:4; stroke-opacity:1; fill:none" points="
  1210.16,150.463 1210.16,1384.24 1267.18,1384.24 1267.18,150.463 1210.16,150.463 
  "/>
<path clip-path="url(#clip562)" d="
M1267.18 297.419 L1267.18 1384.24 L1324.19 1384.24 L1324.19 297.419 L1267.18 297.419 L1267.18 297.419  Z
  " fill="#009af9" fill-rule="evenodd" fill-opacity="1"/>
<polyline clip-path="url(#clip562)" style="stroke:#000000; stroke-width:4; stroke-opacity:1; fill:none" points="
  1267.18,297.419 1267.18,1384.24 1324.19,1384.24 1324.19,297.419 1267.18,297.419 
  "/>
<path clip-path="url(#clip562)" d="
M1324.19 457.789 L1324.19 1384.24 L1381.21 1384.24 L1381.21 457.789 L1324.19 457.789 L1324.19 457.789  Z
  " fill="#009af9" fill-rule="evenodd" fill-opacity="1"/>
<polyline clip-path="url(#clip562)" style="stroke:#000000; stroke-width:4; stroke-opacity:1; fill:none" points="
  1324.19,457.789 1324.19,1384.24 1381.21,1384.24 1381.21,457.789 1324.19,457.789 
  "/>
<path clip-path="url(#clip562)" d="
M1381.21 686.42 L1381.21 1384.24 L1438.23 1384.24 L1438.23 686.42 L1381.21 686.42 L1381.21 686.42  Z
  " fill="#009af9" fill-rule="evenodd" fill-opacity="1"/>
<polyline clip-path="url(#clip562)" style="stroke:#000000; stroke-width:4; stroke-opacity:1; fill:none" points="
  1381.21,686.42 1381.21,1384.24 1438.23,1384.24 1438.23,686.42 1381.21,686.42 
  "/>
<path clip-path="url(#clip562)" d="
M1438.23 842.915 L1438.23 1384.24 L1495.25 1384.24 L1495.25 842.915 L1438.23 842.915 L1438.23 842.915  Z
  " fill="#009af9" fill-rule="evenodd" fill-opacity="1"/>
<polyline clip-path="url(#clip562)" style="stroke:#000000; stroke-width:4; stroke-opacity:1; fill:none" points="
  1438.23,842.915 1438.23,1384.24 1495.25,1384.24 1495.25,842.915 1438.23,842.915 
  "/>
<path clip-path="url(#clip562)" d="
M1495.25 969.005 L1495.25 1384.24 L1552.26 1384.24 L1552.26 969.005 L1495.25 969.005 L1495.25 969.005  Z
  " fill="#009af9" fill-rule="evenodd" fill-opacity="1"/>
<polyline clip-path="url(#clip562)" style="stroke:#000000; stroke-width:4; stroke-opacity:1; fill:none" points="
  1495.25,969.005 1495.25,1384.24 1552.26,1384.24 1552.26,969.005 1495.25,969.005 
  "/>
<path clip-path="url(#clip562)" d="
M1552.26 1115.37 L1552.26 1384.24 L1609.28 1384.24 L1609.28 1115.37 L1552.26 1115.37 L1552.26 1115.37  Z
  " fill="#009af9" fill-rule="evenodd" fill-opacity="1"/>
<polyline clip-path="url(#clip562)" style="stroke:#000000; stroke-width:4; stroke-opacity:1; fill:none" points="
  1552.26,1115.37 1552.26,1384.24 1609.28,1384.24 1609.28,1115.37 1552.26,1115.37 
  "/>
<path clip-path="url(#clip562)" d="
M1609.28 1198.23 L1609.28 1384.24 L1666.3 1384.24 L1666.3 1198.23 L1609.28 1198.23 L1609.28 1198.23  Z
  " fill="#009af9" fill-rule="evenodd" fill-opacity="1"/>
<polyline clip-path="url(#clip562)" style="stroke:#000000; stroke-width:4; stroke-opacity:1; fill:none" points="
  1609.28,1198.23 1609.28,1384.24 1666.3,1384.24 1666.3,1198.23 1609.28,1198.23 
  "/>
<path clip-path="url(#clip562)" d="
M1666.3 1272.16 L1666.3 1384.24 L1723.32 1384.24 L1723.32 1272.16 L1666.3 1272.16 L1666.3 1272.16  Z
  " fill="#009af9" fill-rule="evenodd" fill-opacity="1"/>
<polyline clip-path="url(#clip562)" style="stroke:#000000; stroke-width:4; stroke-opacity:1; fill:none" points="
  1666.3,1272.16 1666.3,1384.24 1723.32,1384.24 1723.32,1272.16 1666.3,1272.16 
  "/>
<path clip-path="url(#clip562)" d="
M1723.32 1312.4 L1723.32 1384.24 L1780.33 1384.24 L1780.33 1312.4 L1723.32 1312.4 L1723.32 1312.4  Z
  " fill="#009af9" fill-rule="evenodd" fill-opacity="1"/>
<polyline clip-path="url(#clip562)" style="stroke:#000000; stroke-width:4; stroke-opacity:1; fill:none" points="
  1723.32,1312.4 1723.32,1384.24 1780.33,1384.24 1780.33,1312.4 1723.32,1312.4 
  "/>
<path clip-path="url(#clip562)" d="
M1780.33 1341.31 L1780.33 1384.24 L1837.35 1384.24 L1837.35 1341.31 L1780.33 1341.31 L1780.33 1341.31  Z
  " fill="#009af9" fill-rule="evenodd" fill-opacity="1"/>
<polyline clip-path="url(#clip562)" style="stroke:#000000; stroke-width:4; stroke-opacity:1; fill:none" points="
  1780.33,1341.31 1780.33,1384.24 1837.35,1384.24 1837.35,1341.31 1780.33,1341.31 
  "/>
<path clip-path="url(#clip562)" d="
M1837.35 1361.58 L1837.35 1384.24 L1894.37 1384.24 L1894.37 1361.58 L1837.35 1361.58 L1837.35 1361.58  Z
  " fill="#009af9" fill-rule="evenodd" fill-opacity="1"/>
<polyline clip-path="url(#clip562)" style="stroke:#000000; stroke-width:4; stroke-opacity:1; fill:none" points="
  1837.35,1361.58 1837.35,1384.24 1894.37,1384.24 1894.37,1361.58 1837.35,1361.58 
  "/>
<path clip-path="url(#clip562)" d="
M1894.37 1370.53 L1894.37 1384.24 L1951.39 1384.24 L1951.39 1370.53 L1894.37 1370.53 L1894.37 1370.53  Z
  " fill="#009af9" fill-rule="evenodd" fill-opacity="1"/>
<polyline clip-path="url(#clip562)" style="stroke:#000000; stroke-width:4; stroke-opacity:1; fill:none" points="
  1894.37,1370.53 1894.37,1384.24 1951.39,1384.24 1951.39,1370.53 1894.37,1370.53 
  "/>
<path clip-path="url(#clip562)" d="
M1951.39 1378.57 L1951.39 1384.24 L2008.4 1384.24 L2008.4 1378.57 L1951.39 1378.57 L1951.39 1378.57  Z
  " fill="#009af9" fill-rule="evenodd" fill-opacity="1"/>
<polyline clip-path="url(#clip562)" style="stroke:#000000; stroke-width:4; stroke-opacity:1; fill:none" points="
  1951.39,1378.57 1951.39,1384.24 2008.4,1384.24 2008.4,1378.57 1951.39,1378.57 
  "/>
<path clip-path="url(#clip562)" d="
M2008.4 1381.56 L2008.4 1384.24 L2065.42 1384.24 L2065.42 1381.56 L2008.4 1381.56 L2008.4 1381.56  Z
  " fill="#009af9" fill-rule="evenodd" fill-opacity="1"/>
<polyline clip-path="url(#clip562)" style="stroke:#000000; stroke-width:4; stroke-opacity:1; fill:none" points="
  2008.4,1381.56 2008.4,1384.24 2065.42,1384.24 2065.42,1381.56 2008.4,1381.56 
  "/>
<path clip-path="url(#clip562)" d="
M2065.42 1383.34 L2065.42 1384.24 L2122.44 1384.24 L2122.44 1383.34 L2065.42 1383.34 L2065.42 1383.34  Z
  " fill="#009af9" fill-rule="evenodd" fill-opacity="1"/>
<polyline clip-path="url(#clip562)" style="stroke:#000000; stroke-width:4; stroke-opacity:1; fill:none" points="
  2065.42,1383.34 2065.42,1384.24 2122.44,1384.24 2122.44,1383.34 2065.42,1383.34 
  "/>
<path clip-path="url(#clip562)" d="
M2122.44 1383.34 L2122.44 1384.24 L2179.46 1384.24 L2179.46 1383.34 L2122.44 1383.34 L2122.44 1383.34  Z
  " fill="#009af9" fill-rule="evenodd" fill-opacity="1"/>
<polyline clip-path="url(#clip562)" style="stroke:#000000; stroke-width:4; stroke-opacity:1; fill:none" points="
  2122.44,1383.34 2122.44,1384.24 2179.46,1384.24 2179.46,1383.34 2122.44,1383.34 
  "/>
<path clip-path="url(#clip562)" d="
M2179.46 1383.94 L2179.46 1384.24 L2236.47 1384.24 L2236.47 1383.94 L2179.46 1383.94 L2179.46 1383.94  Z
  " fill="#009af9" fill-rule="evenodd" fill-opacity="1"/>
<polyline clip-path="url(#clip562)" style="stroke:#000000; stroke-width:4; stroke-opacity:1; fill:none" points="
  2179.46,1383.94 2179.46,1384.24 2236.47,1384.24 2236.47,1383.94 2179.46,1383.94 
  "/>
<circle clip-path="url(#clip562)" cx="354.898" cy="438.702" r="14" fill="#e26f46" fill-rule="evenodd" fill-opacity="1" stroke="#000000" stroke-opacity="1" stroke-width="3.2"/>
<circle clip-path="url(#clip562)" cx="411.915" cy="990.265" r="14" fill="#e26f46" fill-rule="evenodd" fill-opacity="1" stroke="#000000" stroke-opacity="1" stroke-width="3.2"/>
<circle clip-path="url(#clip562)" cx="468.933" cy="1302.16" r="14" fill="#e26f46" fill-rule="evenodd" fill-opacity="1" stroke="#000000" stroke-opacity="1" stroke-width="3.2"/>
<circle clip-path="url(#clip562)" cx="525.95" cy="1315.84" r="14" fill="#e26f46" fill-rule="evenodd" fill-opacity="1" stroke="#000000" stroke-opacity="1" stroke-width="3.2"/>
<circle clip-path="url(#clip562)" cx="582.968" cy="1293.99" r="14" fill="#e26f46" fill-rule="evenodd" fill-opacity="1" stroke="#000000" stroke-opacity="1" stroke-width="3.2"/>
<circle clip-path="url(#clip562)" cx="639.985" cy="1245.11" r="14" fill="#e26f46" fill-rule="evenodd" fill-opacity="1" stroke="#000000" stroke-opacity="1" stroke-width="3.2"/>
<circle clip-path="url(#clip562)" cx="697.002" cy="1163.22" r="14" fill="#e26f46" fill-rule="evenodd" fill-opacity="1" stroke="#000000" stroke-opacity="1" stroke-width="3.2"/>
<circle clip-path="url(#clip562)" cx="754.02" cy="1042.19" r="14" fill="#e26f46" fill-rule="evenodd" fill-opacity="1" stroke="#000000" stroke-opacity="1" stroke-width="3.2"/>
<circle clip-path="url(#clip562)" cx="811.037" cy="881.458" r="14" fill="#e26f46" fill-rule="evenodd" fill-opacity="1" stroke="#000000" stroke-opacity="1" stroke-width="3.2"/>
<circle clip-path="url(#clip562)" cx="868.055" cy="690.04" r="14" fill="#e26f46" fill-rule="evenodd" fill-opacity="1" stroke="#000000" stroke-opacity="1" stroke-width="3.2"/>
<circle clip-path="url(#clip562)" cx="925.072" cy="487.565" r="14" fill="#e26f46" fill-rule="evenodd" fill-opacity="1" stroke="#000000" stroke-opacity="1" stroke-width="3.2"/>
<circle clip-path="url(#clip562)" cx="982.09" cy="301.357" r="14" fill="#e26f46" fill-rule="evenodd" fill-opacity="1" stroke="#000000" stroke-opacity="1" stroke-width="3.2"/>
<circle clip-path="url(#clip562)" cx="1039.11" cy="160.08" r="14" fill="#e26f46" fill-rule="evenodd" fill-opacity="1" stroke="#000000" stroke-opacity="1" stroke-width="3.2"/>
<circle clip-path="url(#clip562)" cx="1096.12" cy="86.1857" r="14" fill="#e26f46" fill-rule="evenodd" fill-opacity="1" stroke="#000000" stroke-opacity="1" stroke-width="3.2"/>
<circle clip-path="url(#clip562)" cx="1153.14" cy="90.0489" r="14" fill="#e26f46" fill-rule="evenodd" fill-opacity="1" stroke="#000000" stroke-opacity="1" stroke-width="3.2"/>
<circle clip-path="url(#clip562)" cx="1210.16" cy="167.878" r="14" fill="#e26f46" fill-rule="evenodd" fill-opacity="1" stroke="#000000" stroke-opacity="1" stroke-width="3.2"/>
<circle clip-path="url(#clip562)" cx="1267.18" cy="303.828" r="14" fill="#e26f46" fill-rule="evenodd" fill-opacity="1" stroke="#000000" stroke-opacity="1" stroke-width="3.2"/>
<circle clip-path="url(#clip562)" cx="1324.19" cy="475.07" r="14" fill="#e26f46" fill-rule="evenodd" fill-opacity="1" stroke="#000000" stroke-opacity="1" stroke-width="3.2"/>
<circle clip-path="url(#clip562)" cx="1381.21" cy="657.722" r="14" fill="#e26f46" fill-rule="evenodd" fill-opacity="1" stroke="#000000" stroke-opacity="1" stroke-width="3.2"/>
<circle clip-path="url(#clip562)" cx="1438.23" cy="831.715" r="14" fill="#e26f46" fill-rule="evenodd" fill-opacity="1" stroke="#000000" stroke-opacity="1" stroke-width="3.2"/>
<circle clip-path="url(#clip562)" cx="1495.25" cy="983.503" r="14" fill="#e26f46" fill-rule="evenodd" fill-opacity="1" stroke="#000000" stroke-opacity="1" stroke-width="3.2"/>
<circle clip-path="url(#clip562)" cx="1552.26" cy="1106.52" r="14" fill="#e26f46" fill-rule="evenodd" fill-opacity="1" stroke="#000000" stroke-opacity="1" stroke-width="3.2"/>
<circle clip-path="url(#clip562)" cx="1609.28" cy="1200" r="14" fill="#e26f46" fill-rule="evenodd" fill-opacity="1" stroke="#000000" stroke-opacity="1" stroke-width="3.2"/>
<circle clip-path="url(#clip562)" cx="1666.3" cy="1267.04" r="14" fill="#e26f46" fill-rule="evenodd" fill-opacity="1" stroke="#000000" stroke-opacity="1" stroke-width="3.2"/>
<circle clip-path="url(#clip562)" cx="1723.32" cy="1312.64" r="14" fill="#e26f46" fill-rule="evenodd" fill-opacity="1" stroke="#000000" stroke-opacity="1" stroke-width="3.2"/>
<circle clip-path="url(#clip562)" cx="1780.33" cy="1342.17" r="14" fill="#e26f46" fill-rule="evenodd" fill-opacity="1" stroke="#000000" stroke-opacity="1" stroke-width="3.2"/>
<circle clip-path="url(#clip562)" cx="1837.35" cy="1360.43" r="14" fill="#e26f46" fill-rule="evenodd" fill-opacity="1" stroke="#000000" stroke-opacity="1" stroke-width="3.2"/>
<circle clip-path="url(#clip562)" cx="1894.37" cy="1371.24" r="14" fill="#e26f46" fill-rule="evenodd" fill-opacity="1" stroke="#000000" stroke-opacity="1" stroke-width="3.2"/>
<circle clip-path="url(#clip562)" cx="1951.39" cy="1377.39" r="14" fill="#e26f46" fill-rule="evenodd" fill-opacity="1" stroke="#000000" stroke-opacity="1" stroke-width="3.2"/>
<circle clip-path="url(#clip562)" cx="2008.4" cy="1380.75" r="14" fill="#e26f46" fill-rule="evenodd" fill-opacity="1" stroke="#000000" stroke-opacity="1" stroke-width="3.2"/>
<circle clip-path="url(#clip562)" cx="2065.42" cy="1382.52" r="14" fill="#e26f46" fill-rule="evenodd" fill-opacity="1" stroke="#000000" stroke-opacity="1" stroke-width="3.2"/>
<path clip-path="url(#clip560)" d="
M1996.36 274.549 L2282.28 274.549 L2282.28 93.1086 L1996.36 93.1086  Z
  " fill="#ffffff" fill-rule="evenodd" fill-opacity="1"/>
<polyline clip-path="url(#clip560)" style="stroke:#000000; stroke-width:4; stroke-opacity:1; fill:none" points="
  1996.36,274.549 2282.28,274.549 2282.28,93.1086 1996.36,93.1086 1996.36,274.549 
  "/>
<path clip-path="url(#clip560)" d="
M2019.85 177.781 L2160.8 177.781 L2160.8 129.397 L2019.85 129.397 L2019.85 177.781  Z
  " fill="#009af9" fill-rule="evenodd" fill-opacity="1"/>
<polyline clip-path="url(#clip560)" style="stroke:#000000; stroke-width:4; stroke-opacity:1; fill:none" points="
  2019.85,177.781 2160.8,177.781 2160.8,129.397 2019.85,129.397 2019.85,177.781 
  "/>
<path clip-path="url(#clip560)" d="M 0 0 M2198.13 173.276 Q2196.32 177.906 2194.61 179.318 Q2192.9 180.73 2190.03 180.73 L2186.62 180.73 L2186.62 177.165 L2189.12 177.165 Q2190.88 177.165 2191.85 176.332 Q2192.83 175.498 2194.01 172.396 L2194.77 170.452 L2184.29 144.943 L2188.8 144.943 L2196.9 165.221 L2205 144.943 L2209.52 144.943 L2198.13 173.276 Z" fill="#000000" fill-rule="evenodd" fill-opacity="1" /><path clip-path="url(#clip560)" d="M 0 0 M2215.4 166.933 L2223.04 166.933 L2223.04 140.568 L2214.73 142.235 L2214.73 137.975 L2222.99 136.309 L2227.66 136.309 L2227.66 166.933 L2235.3 166.933 L2235.3 170.869 L2215.4 170.869 L2215.4 166.933 Z" fill="#000000" fill-rule="evenodd" fill-opacity="1" /><circle clip-path="url(#clip560)" cx="2090.32" cy="214.069" r="23" fill="#e26f46" fill-rule="evenodd" fill-opacity="1" stroke="#000000" stroke-opacity="1" stroke-width="5.12"/>
<path clip-path="url(#clip560)" d="M 0 0 M2198.13 233.756 Q2196.32 238.386 2194.61 239.798 Q2192.9 241.21 2190.03 241.21 L2186.62 241.21 L2186.62 237.645 L2189.12 237.645 Q2190.88 237.645 2191.85 236.812 Q2192.83 235.978 2194.01 232.876 L2194.77 230.932 L2184.29 205.423 L2188.8 205.423 L2196.9 225.701 L2205 205.423 L2209.52 205.423 L2198.13 233.756 Z" fill="#000000" fill-rule="evenodd" fill-opacity="1" /><path clip-path="url(#clip560)" d="M 0 0 M2218.61 227.413 L2234.93 227.413 L2234.93 231.349 L2212.99 231.349 L2212.99 227.413 Q2215.65 224.659 2220.23 220.029 Q2224.84 215.376 2226.02 214.034 Q2228.27 211.511 2229.15 209.775 Q2230.05 208.015 2230.05 206.326 Q2230.05 203.571 2228.1 201.835 Q2226.18 200.099 2223.08 200.099 Q2220.88 200.099 2218.43 200.863 Q2216 201.627 2213.22 203.177 L2213.22 198.455 Q2216.04 197.321 2218.5 196.742 Q2220.95 196.164 2222.99 196.164 Q2228.36 196.164 2231.55 198.849 Q2234.75 201.534 2234.75 206.025 Q2234.75 208.154 2233.94 210.076 Q2233.15 211.974 2231.04 214.566 Q2230.47 215.238 2227.36 218.455 Q2224.26 221.65 2218.61 227.413 Z" fill="#000000" fill-rule="evenodd" fill-opacity="1" /></svg>
